<?xml version="1.0" encoding="UTF-8" standalone="no"?>
<!-- Created with Inkscape (http://www.inkscape.org/) -->

<svg
   xmlns:dc="http://purl.org/dc/elements/1.1/"
   xmlns:cc="http://creativecommons.org/ns#"
   xmlns:rdf="http://www.w3.org/1999/02/22-rdf-syntax-ns#"
   xmlns:svg="http://www.w3.org/2000/svg"
   xmlns="http://www.w3.org/2000/svg"
   xmlns:sodipodi="http://sodipodi.sourceforge.net/DTD/sodipodi-0.dtd"
   xmlns:inkscape="http://www.inkscape.org/namespaces/inkscape"
   width="600"
   height="600"
   id="svg2"
   version="1.1"
   inkscape:version="0.48.2 r9819"
   sodipodi:docname="YuNo-meme.svg"
   inkscape:export-filename="/home/gen/Diseno/Inkscape/meme/YuNo-meme.png"
   inkscape:export-xdpi="90"
   inkscape:export-ydpi="90">
  <defs
     id="defs4" />
  <sodipodi:namedview
     id="base"
     pagecolor="#ffffff"
     bordercolor="#666666"
     borderopacity="1.0"
     inkscape:pageopacity="0.0"
     inkscape:pageshadow="2"
     inkscape:zoom="1.0311974"
     inkscape:cx="117.6688"
     inkscape:cy="290.06652"
     inkscape:document-units="px"
     inkscape:current-layer="layer2"
     showgrid="false"
     borderlayer="true"
     inkscape:showpageshadow="false"
     inkscape:window-width="1920"
     inkscape:window-height="1056"
     inkscape:window-x="0"
     inkscape:window-y="24"
     inkscape:window-maximized="1" />
  <metadata
     id="metadata7">
    <rdf:RDF>
      <cc:Work
         rdf:about="">
        <dc:format>image/svg+xml</dc:format>
        <dc:type
           rdf:resource="http://purl.org/dc/dcmitype/StillImage" />
        <dc:title />
      </cc:Work>
    </rdf:RDF>
  </metadata>
  <g
     inkscape:groupmode="layer"
     id="layer2"
     inkscape:label="fondo"
     sodipodi:insensitive="true"
     style="display:inline">
    <rect
       style="fill:#ffffff;fill-opacity:1;fill-rule:nonzero;stroke:none"
       id="rect3032"
       width="600"
       height="600"
       x="0"
       y="7.6293945e-06" />
  </g>
  <g
     inkscape:label="meme"
     inkscape:groupmode="layer"
     id="layer1"
     transform="translate(0,-452.36217)"
     sodipodi:insensitive="true">
    <g
       id="g3022"
       transform="matrix(0.80848003,0,0,0.80848003,-417.00942,393.54995)">
      <path
         style="fill:#b9b9b9;fill-opacity:1"
         d="m 529.92715,789.59825 c 1.25778,-5.88231 3.39254,-12.17598 4.74392,-13.98592 1.35138,-1.80994 3.35456,-7.06306 4.45152,-11.67361 1.09697,-4.61055 11.63034,-17.93831 23.40749,-29.61724 11.77715,-11.67894 21.44986,-22.42635 21.49492,-23.88312 0.14147,-4.57426 26.47437,-41.73495 37.37603,-52.74464 5.73241,-5.78921 18.56731,-16.89746 28.52199,-24.68499 34.03257,-26.62363 91.75462,-77.87539 91.94872,-81.64178 0.10661,-2.0688 -2.02746,-4.61381 -4.74237,-5.65565 -2.71492,-1.0418 -4.93621,-3.35576 -4.93621,-5.14214 0,-1.78635 -3.60349,-8.55797 -8.00776,-15.04803 -10.9225,-16.0952 -17.05211,-36.00602 -24.82365,-80.63474 -10.14728,-58.27158 -9.10006,-103.89949 3.45732,-150.63665 9.86723,-36.72476 26.50526,-84.01012 39.21714,-111.45536 11.32548,-24.45195 82.60165,-76.76729 104.67586,-76.83006 5.97219,-0.0171 14.96744,-2.15569 19.98947,-4.75266 18.04335,-9.330588 65.80304,-15.948605 98.69343,-13.675858 47.19133,3.260953 80.01483,15.396358 160.10553,59.193698 10.7324,5.86895 48.6711,35.79539 56.7265,44.74639 23.6119,26.23718 46.2964,74.54421 58.2205,123.98197 9.6501,40.00981 1.0237,140.09725 -16.6862,193.59923 -4.628,13.98148 -28.0661,50.85446 -34.0019,53.49205 -1.0387,0.46153 -9.4527,7.86584 -18.6978,16.45402 -12.7666,11.85931 -26.6778,19.8098 -57.8402,33.0565 -53.1147,22.57832 -68.3327,26.98425 -93.2028,26.98425 -14.0364,0 -21.73167,1.52706 -24.49914,4.86167 -4.27775,5.15439 1.09666,10.95848 29.89444,32.28441 l 12.3886,9.17424 1.0405,-10.81964 c 1.451,-15.089 9.8795,-14.14536 13.5844,1.52088 1.7563,7.42626 4.8692,12.34052 7.8171,12.34052 3.8917,0 4.4414,-2.70541 2.6746,-13.16322 -1.7538,-10.38055 -1.2044,-13.16323 2.5986,-13.16323 7.5877,0 13.63,9.60929 12.8099,20.3719 -1.0079,13.22808 6.4263,10.61949 10.0961,-3.54255 3.0879,-11.91673 10.0809,-12.27589 11.7897,-0.60554 1.6992,11.60473 -2.1605,22.63129 -8.502,24.28867 -4.3293,1.13145 -3.9207,1.59917 1.6477,1.88626 4.0723,0.20995 7.4043,-1.09913 7.4043,-2.90907 0,-1.80994 2.2213,-3.29081 4.9362,-3.29081 5.905,0 6.5449,10.23823 0.9872,15.79587 -6.1743,6.17431 -23.901,4.64089 -33.4831,-2.89634 -4.7863,-3.76494 -10.1216,-6.35645 -11.8562,-5.75891 -3.8643,1.3312 -1.3261,4.94835 11.8437,16.87792 l 10.1673,9.20991 15.2248,-8.09509 c 23.517,-12.5041 58.7809,-36.73539 68.8869,-47.33507 9.1093,-9.5542 9.1116,-9.56874 2.4681,-15.58098 -3.6573,-3.30982 -6.6496,-8.05609 -6.6496,-10.54729 0,-7.48701 9.7773,-8.94458 15.2107,-2.26756 2.7622,3.39443 4.1034,4.3512 2.9805,2.12618 -1.1228,-2.22504 -0.4481,-7.02284 1.4994,-10.66184 3.0122,-5.62837 4.5091,-6.01171 10.0246,-2.56723 3.566,2.22702 6.6588,7.76528 6.873,12.30725 0.3539,7.50722 0.5813,7.36042 2.5004,-1.6143 3.1525,-14.74278 11.9189,-12.92589 11.9189,2.47028 0,6.78847 0.2645,12.3417 0.5876,12.34052 0.3232,-10e-4 2.9033,-2.31788 5.7337,-5.14821 5.6157,-5.61569 11.7781,-3.74957 11.7781,3.56665 0,2.5376 -3.332,7.76054 -7.4043,11.60657 -6.1057,5.76628 -9.9697,6.65016 -22.0307,5.03957 -13.0174,-1.73834 -15.7323,-0.89803 -24.681,7.63914 -20.479,19.53725 -84.441,59.56424 -95.182,59.56424 -2.821,0 -14.8896,-9.13051 -26.8192,-20.29005 l -21.6901,-20.29002 -21.2758,7.51096 c -11.7017,4.13105 -31.24233,8.16508 -43.42367,8.96452 -38.6,2.53319 -34.09064,-2.06985 -71.14054,72.6183 -2.1611,4.3565 -6.69294,7.38914 -11.06457,7.40431 -9.68517,0.0336 -9.38232,-2.16393 2.96899,-21.54299 13.94792,-21.88409 26.28067,-50.15935 22.81272,-52.30268 -2.60016,-1.60697 -7.37413,-0.49375 -35.04026,8.17084 -9.79512,3.06765 -11.19631,2.05313 -49.3621,-35.73989 -21.60445,-21.39346 -47.42556,-48.23182 -57.38025,-59.64085 -9.95468,-11.40902 -22.20035,-24.72398 -27.21258,-29.58885 -5.01224,-4.86489 -8.09737,-9.86103 -6.85584,-11.10255 5.86785,-5.86783 14.76122,-0.5776 30.78114,18.31024 9.59451,11.31214 36.83456,39.52646 60.53343,62.6985 33.71853,32.96893 44.52389,41.72576 49.68775,40.26777 3.6294,-1.02472 13.26277,-2.67914 21.40752,-3.67642 28.42499,-3.48055 29.2157,-3.98372 44.97455,-28.61872 8.36555,-13.07743 19.43891,-28.92736 24.60745,-35.22205 5.16851,-6.29472 9.39733,-12.58838 9.39733,-13.98592 0,-1.39757 -7.77453,-2.54666 -17.27673,-2.55357 -57.90087,-0.0421 -124.15311,-21.90718 -181.55299,-59.91786 -13.06633,-8.65262 -21.73491,-12.29985 -26.32645,-11.07656 -3.76509,1.00311 -14.99036,9.38541 -24.94505,18.62738 -9.95468,9.24196 -24.76331,22.20744 -32.90805,28.81222 -61.2612,49.67806 -70.85448,59.00203 -88.80045,86.30772 -10.18882,15.50278 -25.32631,34.89175 -33.63886,43.08661 -15.24821,15.03237 -26.17862,33.01988 -30.17888,49.66359 -1.49988,6.24051 -4.27982,9.04971 -8.95545,9.04971 -5.92489,0 -6.49184,-1.34943 -4.49351,-10.69512 z m 475.85015,-90.15076 18.5468,-5.4806 -20.168,-17.58906 c -11.0923,-9.67401 -21.23424,-17.58909 -22.53759,-17.58909 -2.97015,0 -28.94139,37.98195 -28.94139,42.32568 0,1.75841 -1.85108,4.07412 -4.1135,5.14596 -8.74107,4.14122 39.64051,-1.61993 57.21368,-6.81289 z m 73.5958,-85.80442 c 21.7062,-8.88221 22.9753,-9.9773 21.9889,-18.97426 -0.5758,-5.2514 -2.5329,-12.32476 -4.3492,-15.71856 -3.0579,-5.71363 -3.8856,-5.78843 -11.178,-1.01028 -10.6745,6.99418 -18.5002,6.54778 -55.9944,-3.19402 -21.2601,-5.52385 -33.25969,-7.2484 -35.41786,-5.09022 -2.05031,2.0503 -5.38251,2.13027 -8.96123,0.21489 -4.34761,-2.32677 -5.59239,-1.78951 -5.25479,2.26796 0.24319,2.92434 -1.40863,5.97001 -3.67106,6.7681 -5.93816,2.09482 -5.13602,-10.76795 1.05777,-16.9617 7.40684,-7.40685 24.91577,-7.84683 34.31837,-0.86236 2.7149,2.01671 0.4936,-1.2119 -4.9362,-7.17468 l -9.8724,-10.84143 9.0497,4.091 c 4.9774,2.25009 9.0497,5.09651 9.0497,6.32539 0,5.42716 41.7923,19.65289 57.9018,19.70923 14.195,0.0497 22.6874,-10.23342 22.2493,-26.94061 -0.5177,-19.74381 -15.9804,-26.7969 -15.9804,-7.28923 0,7.81885 -1.5155,9.72992 -8.227,10.37433 l -8.227,0.78989 7.6157,-3.23016 c 4.1887,-1.7766 6.6928,-4.72359 5.5647,-6.54883 -2.9107,-4.70974 -11.5146,-4.12219 -11.6396,0.79486 -0.061,2.40074 -2.0296,1.57251 -4.7277,-1.98916 -2.5427,-3.35646 -6.5547,-5.45875 -8.9157,-4.67176 -2.3609,0.787 -6.3579,-0.6344 -8.8822,-3.15861 -2.9881,-2.98812 -5.7115,-3.46749 -7.8051,-1.37388 -4.6283,4.62832 0,10.36228 8.4166,10.42109 3.9655,0.0263 9.4314,1.62655 12.1463,3.55295 3.7112,2.6333 1.5962,3.12442 -8.5221,1.97893 -8.1276,-0.92014 -20.8717,-6.44583 -32.1744,-13.95038 l -18.71597,-12.42671 -6.62084,7.10659 c -3.64144,3.90872 -7.1419,7.10669 -7.77877,7.10669 -0.63691,0 2.88551,-9.99582 7.82757,-22.21293 11.19187,-27.66718 14.59101,-43.60317 9.30038,-43.60317 -2.91602,0 -2.89578,-0.97092 0.0823,-3.94897 4.98483,-4.98491 5.15953,-15.79587 0.25536,-15.79587 -8.63023,0 4.54057,-9.09127 21.54387,-14.87088 14.7365,-5.00907 19.5092,-5.40163 26.5686,-2.18513 4.7329,2.15643 7.6939,5.39534 6.5801,7.19758 -1.1429,1.84914 1.6438,3.27682 6.396,3.27682 9.9137,0 11.2837,-7.83665 2.975,-17.01761 -3.4357,-3.79627 -4.0004,-6.01802 -1.5297,-6.01802 2.7709,0 2.9769,-1.75588 0.7041,-6.00256 -3.3633,-6.28432 -23.4704,-13.76051 -36.8906,-13.71661 -9.072,0.0296 -18.4138,15.40304 -12.782,21.03483 4.6885,4.68858 4.069,8.55675 -1.3706,8.55675 -2.564,0 -5.4089,1.85108 -6.3218,4.11351 -4.1688,10.33142 -1.6236,-14.73366 2.7568,-27.14915 2.7149,-7.69489 4.9833,-18.61732 5.0409,-24.27208 0.058,-5.65475 2.1599,-12.99321 4.6718,-16.30767 3.4819,-4.59428 3.7576,-8.34863 1.1603,-15.79931 -1.8739,-5.37516 -2.4953,-10.68466 -1.3811,-11.7989 1.1143,-1.11423 2.0259,-0.29821 2.0259,1.81339 0,2.1116 2.9618,3.83927 6.5816,3.83927 3.6199,0 6.5816,1.11065 6.5814,2.46811 -10e-5,1.35745 4.7902,2.32658 10.6451,2.15361 7.6876,-0.22713 11.6269,1.60146 14.1786,6.58161 1.9433,3.79286 5.9802,6.7001 8.9708,6.46055 2.9905,-0.23953 5.1252,1.24132 4.7437,3.29081 -0.3816,2.04949 1.7856,3.31699 4.8158,2.81666 3.1619,-0.52206 6.4115,1.93187 7.6261,5.75891 1.1641,3.66773 3.7938,6.6686 5.8438,6.6686 2.6525,0 2.5886,-1.13861 -0.2218,-3.94896 -6.7213,-6.7213 -4.3411,-10.58917 2.6326,-4.27805 9.2364,8.35879 8.3225,10.37416 -5.7389,12.65601 -10.4893,1.70218 -13.5192,0.70663 -20.3852,-6.69802 -4.8179,-5.1959 -8.5825,-7.14406 -9.3508,-4.83908 -0.7073,2.12207 -2.948,2.83116 -4.9793,1.57576 -5.6601,-3.49814 -19.1334,-4.28297 -17.1021,-0.99621 0.9883,1.59914 -1.2962,4.56295 -5.0768,6.58624 -10.3838,5.55725 -5.9118,11.43542 8.8705,11.65962 15.072,0.22871 34.0178,11.86115 34.0178,20.88661 0,7.40066 13.1531,13.46736 29.1984,13.46736 15.599,0 26.2488,-10.4314 28.9158,-28.32265 1.811,-12.14938 1.6394,-12.47182 -3.3165,-6.23081 -5.0598,6.37192 -5.2297,6.24704 -5.331,-3.91929 -0.058,-5.7755 -1.6096,-11.43106 -3.4491,-12.56791 -1.8394,-1.13686 -2.5557,-3.34322 -1.5917,-4.90303 0.964,-1.55982 0.2478,-3.76618 -1.5917,-4.90304 -1.8395,-1.13685 -3.3445,-0.25193 -3.3445,1.96649 0,8.67686 -3.9616,-0.52401 -4.99,-11.58939 -0.5992,-6.44729 -4.2086,-20.05903 -8.021,-30.24832 -3.8123,-10.18929 -6.0699,-21.68356 -5.0168,-25.54282 1.7761,-6.50941 1.5785,-6.60038 -2.7321,-1.25794 -6.2924,7.79856 -7.4937,7.28453 -7.3417,-3.1417 0.1149,-7.86857 -1.4919,-9.22652 -13.8562,-11.71148 -7.6922,-1.54598 -13.9859,-4.30438 -13.9859,-6.12978 0,-1.9851 2.9756,-2.31908 7.4043,-0.83104 8.2485,2.77151 32.0854,3.92028 32.0854,1.5463 0,-3.38311 -14.5809,-16.75386 -18.2702,-16.75386 -2.1778,0 -5.7773,-2.19018 -7.9989,-4.86706 -2.9991,-3.61367 -5.6452,-4.00758 -10.2754,-1.52962 -6.4954,3.47625 -9.2123,-1.24787 -2.9452,-5.12114 6.1798,-3.81935 3.2981,-11.83655 -8.6342,-24.02145 -6.5588,-6.69758 -15.6754,-18.06789 -20.2592,-25.26737 -9.645,-15.14866 -15.0511,-21.02173 -26.21618,-28.48044 -4.42242,-2.95435 -6.60008,-6.26193 -4.83923,-7.35019 3.43965,-2.12582 33.62231,22.81671 33.62231,27.785 0,2.96355 6.0151,10.49496 24.3449,30.48201 5.2449,5.71913 8.3453,8.31406 6.8897,5.76652 -1.9684,-3.44512 -1.0391,-4.23247 3.627,-3.073 4.4715,1.11109 10.0546,-2.91841 19.4367,-14.02795 15.1494,-17.93861 33.2142,-28.63945 38.8441,-23.00955 2.6159,2.61589 2.389,3.60733 -0.8254,3.60733 -5.1536,0 -32.4363,21.42149 -39.6641,31.14294 -8.7425,11.75888 -9.8975,24.77568 -2.8257,31.84744 3.4961,3.49613 7.4132,5.76642 8.7047,5.04511 1.2914,-0.72131 10.863,-3.93976 21.2702,-7.15212 10.9247,-3.3721 18.9221,-7.73653 18.9221,-10.32637 0,-2.46715 1.6393,-4.48573 3.6429,-4.48573 2.0036,0 2.8861,1.85108 1.9611,4.11351 -6.3615,15.55975 -6.3582,15.63132 0.7312,15.63132 15.7872,0 43.0269,17.06239 43.0269,26.95117 0,2.15353 -4.436,-0.62178 -9.8579,-6.16736 -10.2227,-10.45607 -21.5602,-14.2022 -42.9823,-14.2022 -15.867,0 -26.2557,12.73956 -25.9078,31.77066 0.2718,14.8764 4.279,26.89586 7.3242,21.96874 1.1601,-1.87706 0.3472,-8.08107 -1.8065,-13.78669 -3.5744,-9.46982 -3.1538,-11.13568 4.8264,-19.11591 6.6946,-6.69464 12.874,-9.0847 26.3845,-10.2051 15.5106,-1.28626 18.9163,-0.3911 28.1855,7.40838 10.1882,8.57284 14.0167,18.15878 7.2523,18.15878 -1.81,0 -3.2908,-1.99178 -3.2908,-4.42617 0,-11.2363 -28.4359,-22.97653 -38.7661,-16.0052 -3.3982,2.29325 -3.3171,4.56905 0.4193,11.77092 3.5802,6.90083 5.0736,7.77683 6.5774,3.85803 2.3201,-6.04587 18.8493,-6.80128 24.5296,-1.12103 6.7366,6.73658 4.5938,17.73642 -4.239,21.76094 -11.2867,5.14252 -17.3058,1.9865 -25.009,-13.11289 -3.6245,-7.10473 -8.8939,-13.80175 -11.7097,-14.88228 -5.4524,-2.09226 -10.9362,4.00412 -10.9362,12.15768 0,3.84747 0.5973,3.99457 2.7081,0.66694 2.1792,-3.43527 3.4907,-3.32644 6.7137,0.55705 3.2289,3.89046 2.8534,5.49657 -1.9358,8.28272 -3.2678,1.90101 -4.3696,3.50141 -2.4484,3.55644 1.9211,0.0551 6.8105,3.19084 10.8653,6.96845 4.342,4.04524 9.5613,6.02838 12.6979,4.82475 2.9291,-1.12399 6.4834,-0.17027 7.8985,2.11938 3.2554,5.26727 19.0318,-5.7024 25.054,-17.42054 l 4.065,-7.90978 0.048,8.43085 c 0.062,10.76786 -15.6573,22.8318 -29.75,22.8318 -5.6762,0 -14.6112,-3.05537 -19.8557,-6.78971 -8.908,-6.34311 -16.1617,-6.30844 -16.1617,0.0773 0,4.77582 22.7851,16.46702 36.3066,18.62921 7.1147,1.13768 12.1649,3.31591 11.2226,4.8405 -2.4367,3.94281 -20.9472,-0.0132 -33.5433,-7.16879 -5.8823,-3.34164 -10.6951,-5.56606 -10.6951,-4.94317 0,3.99734 11.6586,27.84995 16.8188,34.41019 8.3323,10.59271 8.4071,36.20891 0.1369,46.88435 -3.3439,4.31645 -7.0742,11.92048 -8.2897,16.89782 -1.23,5.03698 -4.4751,9.04972 -7.3185,9.04972 -4.5409,0 -4.5601,0.54848 -0.1724,4.93621 2.7149,2.71491 7.2633,4.93621 10.1075,4.93621 2.8442,0 5.2813,1.11064 5.4158,2.4681 0.1346,1.35746 0.8794,5.89021 1.6553,10.07276 0.9261,4.99182 0.1557,6.82891 -2.2425,5.3468 -2.4938,-1.54125 -2.9073,0.0928 -1.3028,5.14797 1.6013,5.04507 1.1891,6.68804 -1.2928,5.1541 -2.4796,-1.53247 -3.7172,3.32881 -3.8747,15.21921 -0.127,9.60902 -1.5217,20.43268 -3.099,24.05257 -2.7969,6.41897 -2.9219,6.40157 -5.0579,-0.7048 -1.8718,-6.22738 -2.8562,-6.62024 -6.7734,-2.70316 -7.0449,7.04518 -5.8195,18.21658 1.9986,18.21658 3.6199,0 6.5816,1.34222 6.5816,2.98272 0,1.6405 -2.9617,2.20823 -6.5816,1.2616 -5.7694,-1.50874 -6.5816,-0.10103 -6.5816,11.40757 0,11.89403 11.0325,43.58261 15.1734,43.58261 8.8564,0 40.0674,-19.93738 57.6119,-36.802 32.719,-31.45125 37.982,-44.11381 52.4086,-126.09287 15.6872,-89.14313 0.6474,-160.6432 -47.0245,-223.55639 -27.4425,-36.21631 -86.7727,-73.25788 -155.5034,-97.08525 -45.18983,-15.666332 -104.93276,-16.245099 -144.22678,-1.39722 -7.5525,2.85384 -23.686,7.91271 -35.85227,11.24196 -21.5003,5.88345 -41.43361,18.1628 -68.37669,42.12151 -6.3348,5.63312 -12.44611,10.26569 -13.58068,10.2946 -5.18062,0.13201 -33.37522,75.56021 -46.00552,123.07721 -13.89647,52.28052 -12.62841,106.62984 4.22828,181.22509 7.25004,32.08335 30.43413,67.61128 44.12037,67.61128 2.3809,0 5.51313,1.93272 6.96052,4.29496 8.88226,14.49632 71.95733,48.46323 107.9374,58.12595 7.45206,2.00134 18.04355,-0.13986 17.27673,-3.49266 -0.45249,-1.97837 2.13902,-5.31031 5.75891,-7.40431 3.61988,-2.09401 7.32204,-4.5477 8.22701,-5.45267 0.90497,-0.90497 4.60713,-3.26135 8.22702,-5.23639 3.61988,-1.97505 11.02419,-9.65911 16.45402,-17.07566 12.40061,-16.93788 16.4356,-17.57764 9.75237,-1.54629 -2.82953,6.78729 -13.43346,19.94159 -23.56427,29.2318 l -18.41966,16.89131 22.69738,3.76159 c 30.98586,5.13523 52.55287,6.28978 95.09506,5.09064 30.8478,-0.8695 39.6041,-2.41374 59.2345,-10.44656 z m -110.24195,-1.11983 c 0,-1.91676 1.48086,-2.56979 3.29081,-1.45118 1.80994,1.11861 3.2908,2.68688 3.2908,3.48503 0,0.79815 -1.48086,1.45118 -3.2908,1.45118 -1.80995,0 -3.29081,-1.56827 -3.29081,-3.48503 z m -13.16322,-11.21773 c 0,-11.31629 10.88592,-40.76044 18.51792,-50.08718 4.16451,-5.08923 7.62509,-7.50787 7.69018,-5.37474 0.0652,2.13317 -1.75001,5.83532 -4.03354,8.22702 -7.23223,7.5748 -13.22262,23.78656 -9.27553,25.10226 5.25509,1.75169 4.43713,4.74379 -4.67202,17.09057 -6.20415,8.40925 -8.22701,9.649 -8.22701,5.04207 z m 164.54027,-75.79439 c 0,-2.71491 1.4809,-4.93621 3.2908,-4.93621 1.8099,0 3.2908,2.2213 3.2908,4.93621 0,2.71492 -1.4809,4.93621 -3.2908,4.93621 -1.8099,0 -3.2908,-2.22129 -3.2908,-4.93621 z M 863.82538,502.78357 c 0,-3.00796 2.30402,-4.02561 6.58161,-2.907 3.61988,0.94663 6.58161,3.02928 6.58161,4.62812 0,1.59884 -2.96173,2.907 -6.58161,2.907 -3.61989,0 -6.58161,-2.08265 -6.58161,-4.62812 z m 51.41294,-56.38183 c -3.05183,-7.95292 -2.39107,-10.41412 1.29033,-4.80616 2.88037,4.38773 3.62571,4.38773 6.70814,0 2.89903,-4.12673 3.30377,-3.90161 2.4681,1.3727 -1.2943,8.16876 -7.82711,10.31177 -10.46657,3.43346 z m -103.24313,-7.16988 c -2.26243,-0.81154 -4.11351,-3.57345 -4.11351,-6.13751 0,-5.92592 2.51608,-5.90683 8.48732,0.0645 5.02051,5.02052 2.48939,8.53503 -4.37381,6.07311 z m 53.74856,-13.64864 c -1.41758,-2.2937 -1.68871,-5.05906 -0.60251,-6.14529 2.94517,-2.94514 6.15634,1.38642 4.56563,6.15858 -1.11466,3.34402 -1.88981,3.34142 -3.96312,-0.0132 z M 1101.4049,387.2973 c 0.067,-5.42983 0.8046,-7.25273 1.639,-4.05088 0.8343,3.20184 0.7795,7.64443 -0.1221,9.87241 -0.9015,2.22797 -1.5841,-0.39171 -1.5171,-5.82153 z m 9.2309,-3.29081 c 0,-2.71491 1.4808,-4.93621 3.2908,-4.93621 1.8099,0 3.2908,2.2213 3.2908,4.93621 0,2.71491 -1.4809,4.93621 -3.2908,4.93621 -1.81,0 -3.2908,-2.2213 -3.2908,-4.93621 z m -50.867,-27.74446 c -1.0413,-1.68488 -0.3882,-3.99356 1.4512,-5.13042 1.8395,-1.13685 3.3445,0.24168 3.3445,3.06342 0,5.78038 -1.9747,6.63149 -4.7957,2.067 z m -117.69594,-13.6625 -7.49517,-6.41022 9.09247,2.06313 c 5.05448,1.14689 11.07418,0.41843 13.55479,-1.6403 2.45428,-2.03688 7.9883,-3.13848 12.29777,-2.448 4.51298,0.72309 15.28379,-2.85639 25.40097,-8.44152 21.91131,-12.096 25.60621,-9.81673 6.59891,4.07058 -24.77067,18.09817 -47.52981,23.00082 -59.44974,12.80633 z m -37.56776,-7.95512 c -2.83915,-7.39863 1.1294,-14.84252 7.75639,-14.54883 3.44751,0.1528 4.16781,0.9435 1.74867,1.91964 -7.19979,2.90518 -4.90231,11.67767 2.4474,9.34496 5.03652,-1.59854 6.10162,-0.88547 4.58413,3.06904 -2.51839,6.56283 -14.04325,6.7128 -16.53659,0.21519 z m 10.02096,-25.02004 c -3.12729,-3.45563 -4.70783,-7.26113 -3.51231,-8.45666 1.19555,-1.19553 2.19638,-0.0758 2.22409,2.48828 0.0428,3.96022 0.5027,3.94711 3.05515,-0.0871 2.45033,-3.87283 4.59479,-4.02463 11.62227,-0.8227 4.73965,2.15953 18.20286,3.92641 29.91829,3.92641 22.97937,0 41.46566,-8.37668 52.14995,-23.6307 8.041,-11.48002 6.3674,-19.70997 -8.252,-40.57976 -7.40894,-10.57667 -15.86855,-22.88968 -18.79907,-27.36225 -5.12086,-7.81542 -5.07686,-7.98969 1.13035,-4.47721 3.55223,2.01011 11.52315,8.19876 17.71312,13.75257 6.19,5.5538 18.448,14.01297 27.2399,18.79814 16.2543,8.84669 16.3171,13.97687 0.1725,14.08674 -4.0723,0.0277 -7.4043,1.53126 -7.4043,3.3412 0,1.80994 7.4918,3.2908 16.6483,3.2908 10.5475,0 15.8832,1.23788 14.5605,3.37808 -1.1483,1.85794 -3.8272,3.16335 -5.9532,2.90091 -2.1259,-0.26245 -8.3079,-0.25669 -13.7377,0.0128 -9.0975,0.45151 -9.3558,0.78211 -3.2908,4.21158 3.6198,2.04689 7.6733,5.53873 9.0076,7.75965 1.3344,2.22092 6.5174,5.05912 11.5179,6.30712 5.0004,1.248 11.9378,4.74523 15.4163,7.77162 3.4785,3.02638 5.3054,3.75376 4.0598,1.6164 -1.2456,-2.13737 -0.8032,-4.78944 0.9833,-5.8935 4.7409,-2.93005 7.9053,13.2031 3.9693,20.23636 -3.0509,5.45138 -3.6716,5.16816 -6.8196,-3.11145 -3.3361,-8.77463 -14.6176,-15.57235 -25.8438,-15.57235 -4.1846,0 -4.5026,0.87755 -1.4312,3.94897 2.1719,2.17193 3.949,6.13222 3.949,8.80065 0,3.54628 -2.1496,2.83222 -7.9893,-2.65388 -4.3942,-4.12806 -7.1974,-9.56922 -6.2296,-12.09146 2.8062,-7.31268 -8.932,-5.46005 -15.8351,2.49925 -3.3797,3.89682 -6.1676,5.7479 -6.1953,4.1135 -0.026,-1.63439 -1.1383,-1.3888 -2.4681,0.54577 -5.2871,7.692 -32.90223,15.30459 -58.96258,16.25409 -23.08688,0.84117 -27.73866,0.0849 -32.61366,-5.30186 z m 17.44522,-16.25258 c -21.65261,-11.70046 -24.88912,-40.9058 -5.63643,-50.86174 27.65122,-14.299 64.17327,3.2626 61.93632,29.78203 -1.93049,22.88613 -32.07216,34.17172 -56.29989,21.07971 z m 24.49932,-4.00718 c 0.62851,1.49137 5.58532,1.87578 11.01515,0.85425 l 9.87241,-1.85734 -8.77575,-5.85207 c -7.47582,-4.98521 -9.82302,-5.21327 -15.84566,-1.5396 -6.24598,3.8099 -7.81194,3.4071 -13.43718,-3.4564 -7.27347,-8.87455 -8.14547,-17.10847 -2.41831,-22.83561 9.36869,-9.36869 29.42562,0.94708 27.07247,13.92402 -0.97418,5.3723 1.0627,7.94167 8.53042,10.76042 l 9.81022,3.70294 0,-12.80151 c 0,-13.83865 -6.42816,-20.40969 -25.24518,-25.80634 -21.73594,-6.23379 -46.39335,15.56969 -37.14671,32.84723 4.21647,7.87858 15.45378,13.95073 21.51397,11.62522 2.57347,-0.98754 4.67906,-0.17981 4.67906,1.79494 0,2.47905 1.42894,2.40457 4.61618,-0.24062 2.53892,-2.10711 5.13043,-2.61089 5.75891,-1.11952 z m 113.0301,-15.6001 c -1.1186,-1.80994 0.2748,-3.29081 3.0966,-3.29081 2.8217,0 5.1304,1.48087 5.1304,3.29081 0,1.80994 -1.3934,3.2908 -3.0966,3.2908 -1.7031,0 -4.0118,-1.48086 -5.1304,-3.2908 z m -70.8037,-8.50125 c -0.0717,-8.80685 -22.22446,-32.21899 -36.6448,-38.72814 -6.60833,-2.98292 -16.60415,-5.4235 -22.21294,-5.4235 -5.60878,0 -10.19778,-1.48086 -10.19778,-3.2908 0,-4.90245 21.60691,-3.97609 34.68174,1.48692 20.20781,8.44337 44.56638,42.12167 36.38378,50.30434 -1.07726,1.07721 -1.98174,-0.87976 -2.01,-4.34882 z m 53.452,-51.55595 c -2.0104,-4.07237 -4.6215,-12.31686 -5.8024,-18.3211 -1.181,-6.00423 -4.2199,-14.8894 -6.753,-19.74483 -2.5332,-4.85542 -4.6328,-11.04934 -4.6657,-13.76425 -0.033,-2.71492 -3.6001,-11.12723 -7.9269,-18.69403 -9.5981,-16.78511 -7.232,-20.9472 4.4621,-7.84899 10.1141,11.32856 18.6635,34.43982 21.6865,58.62469 1.1875,9.50018 3.5012,18.10254 5.1416,19.11635 3.7383,2.31041 3.9149,8.03647 0.2478,8.03647 -1.5041,0 -4.3796,-3.33194 -6.39,-7.40431 z m 15.7063,-21.55477 c 0,-1.44796 1.8511,-4.49742 4.1135,-6.77658 3.2994,-3.32375 2.8986,-3.68116 -2.0251,-1.80576 -6.1961,2.36005 -6.142,-0.27629 0.3607,-17.57957 0.8502,-2.26243 -0.093,-4.1135 -2.097,-4.1135 -2.0036,0 -3.6656,-4.07237 -3.6933,-9.04972 -0.035,-6.3283 -0.9011,-7.70705 -2.8794,-4.58487 -4.7962,7.56929 -7.699,-1.86389 -3.1252,-10.15574 3.5517,-6.439 4.2887,-6.67594 5.3296,-1.71341 0.6644,3.1674 3.1154,5.7589 5.4466,5.7589 2.7492,0 3.6847,2.8974 2.6622,8.24593 -2.0627,10.79053 3.7937,17.40968 17.714,20.02114 8.4076,1.57728 10.4219,3.1401 7.9249,6.14878 -1.8414,2.21869 -2.3735,5.00838 -1.1826,6.1993 1.1909,1.19093 -2.5706,2.16532 -8.3589,2.16532 -6.319,0 -11.281,1.97234 -12.4183,4.93621 -1.9779,5.15434 -7.7717,6.87165 -7.7717,2.30357 z m 16.454,-17.11219 c -6.4446,-4.16484 -10.801,-4.16484 -8.227,0 1.1186,1.80994 4.538,3.26813 7.5986,3.24041 4.7956,-0.0434 4.8824,-0.49128 0.6284,-3.24041 z M 955.96793,161.87713 c 0,-1.80995 2.22129,-3.29081 4.93621,-3.29081 2.71491,0 4.9362,1.48086 4.9362,3.29081 0,1.80994 -2.22129,3.2908 -4.9362,3.2908 -2.71492,0 -4.93621,-1.48086 -4.93621,-3.2908 z M 924.7988,145.57444 c -2.73288,-4.42192 1.58844,-19.89617 5.5562,-19.89617 1.86694,0 2.39738,3.55964 1.22595,8.22701 -1.54914,6.17223 -0.76781,8.22701 3.12824,8.22701 2.85623,0 4.27792,1.48087 3.15931,3.29081 -2.58138,4.17674 -10.52502,4.26873 -13.0697,0.15134 z m 103.5668,383.33075 c 0,-2.94392 -1.9293,-4.09254 -4.9362,-2.93872 -3.1257,1.19947 -4.9362,-0.0454 -4.9362,-3.39407 0,-2.90858 -2.2213,-5.28829 -4.9362,-5.28829 -7.1758,0 -6.0474,5.0037 2.4681,10.94383 9.4129,6.56608 12.3405,6.72674 12.3405,0.67725 z m 23.0357,-6.1364 c 0,-2.6693 -3.8191,-4.38776 -9.7513,-4.38776 -8.7009,0 -9.144,0.46141 -4.1135,4.28308 7.3492,5.58328 13.8648,5.63245 13.8648,0.10465 z m 12.4091,-1.57685 c 0.7164,-2.14932 -1.0421,-3.90783 -3.9079,-3.90783 -2.8657,0 -5.2104,2.3447 -5.2104,5.21043 0,5.81133 7.0843,4.79928 9.1183,-1.3026 z m -61.7712,-9.03826 c 0,-2.82174 -1.4809,-4.2152 -3.2908,-3.09659 -1.80994,1.11861 -3.29081,3.42731 -3.29081,5.13044 0,1.70312 1.48087,3.09658 3.29081,3.09658 1.8099,0 3.2908,-2.3087 3.2908,-5.13043 z m 102.8189,-8.86741 c 6.2383,-8.17893 7.7924,-13.42375 6.5817,-22.21293 -1.628,-11.81824 -12.8349,-27.40277 -17.5915,-24.46303 -1.4672,0.90678 -8.0967,-0.61972 -14.7322,-3.39223 -14.4718,-6.04669 -28.2367,-6.49351 -33.6383,-1.09192 -2.1938,2.19388 -3.9489,2.4864 -3.9489,0.65816 0,-1.80994 1.777,-5.06784 3.9489,-7.23977 2.172,-2.17193 2.6971,-3.94897 1.1671,-3.94897 -5.4048,0 -41.3149,40.58189 -41.3149,46.68979 0,5.39066 0.961,5.68634 7.4043,2.27815 4.0724,-2.15409 13.2241,-8.87006 20.3372,-14.92442 7.1131,-6.05433 16.2811,-11.00788 20.3733,-11.00788 4.0923,0 8.4479,-1.63003 9.6792,-3.62232 3.5342,-5.71843 19.4867,-0.86581 30.3226,9.2239 8.1418,7.58112 9.595,11.09574 8.2289,19.90216 -0.9125,5.88232 -2.7992,10.69512 -4.1926,10.69512 -1.3935,0 -3.308,2.96173 -4.2547,6.58161 -2.549,9.7477 2.3827,7.99827 11.6299,-4.12542 z m -79.7833,-37.00965 c 2.2532,-2.71491 6.318,-4.9362 9.0329,-4.9362 4.0147,0 4.1714,0.92159 0.8396,4.9362 -2.2532,2.71492 -6.318,4.93621 -9.0329,4.93621 -4.0147,0 -4.1714,-0.92159 -0.8396,-4.93621 z m -11.5178,37.84427 c 1.1186,-1.80995 -0.2748,-3.29081 -3.0966,-3.29081 -2.8217,0 -5.1304,1.48086 -5.1304,3.29081 0,1.80994 1.3935,3.2908 3.0966,3.2908 1.7031,0 4.0118,-1.48086 5.1304,-3.2908 z m 62.3608,-6.21176 c -1.7195,-1.60651 -6.4582,-3.92758 -10.5306,-5.15794 -6.0123,-1.81646 -7.4043,-0.95799 -7.4043,4.56632 0,7.44334 5.1152,9.26102 7.5696,2.68987 1.0253,-2.74486 2.3568,-2.12382 4.0021,1.86661 1.7471,4.23783 3.4886,4.95691 5.9774,2.4681 2.209,-2.20892 2.3521,-4.5958 0.3858,-6.43296 z m 14.219,5.59473 c -2.034,-6.10188 -9.1183,-7.11393 -9.1183,-1.3026 0,2.86573 2.3447,5.21043 5.2105,5.21043 2.8657,0 4.6242,-1.75854 3.9078,-3.90783 z m -66.7074,-5.96458 c 1.1187,-1.80995 0.4656,-3.29081 -1.4511,-3.29081 -1.9168,0 -3.4851,1.48086 -3.4851,3.29081 0,1.80994 0.6531,3.2908 1.4512,3.2908 0.7982,0 2.3664,-1.48086 3.485,-3.2908 z m 30.3579,-3.29081 c 0.2728,-3.61989 -0.8931,-6.58161 -2.5905,-6.58161 -1.6975,0 -3.0863,0.61933 -3.0863,1.37625 0,0.75695 -0.8989,3.71867 -1.9975,6.58161 -1.2328,3.21268 -0.2412,5.20536 2.5905,5.20536 2.5234,0 4.8111,-2.96172 5.0838,-6.58161 z m -15.5492,-3.29081 c 0,-3.65644 -2.1939,-6.58161 -4.9362,-6.58161 -5.01,0 -6.7503,6.96137 -2.7424,10.96934 4.1721,4.17205 7.6786,2.16835 7.6786,-4.38773 z m 45.18,-1.9882 c -1.0935,-1.0935 -3.9319,-1.21039 -6.3074,-0.25965 -2.6252,1.05049 -1.8454,1.83028 1.9882,1.98818 3.469,0.14282 5.4127,-0.6349 4.3192,-1.7284 z m -23.6545,-7.66527 c -2.7091,-4.38339 -14.9439,-4.64721 -14.9439,-0.32221 0,1.75311 2.0715,2.39262 4.6033,1.42104 2.5319,-0.97155 5.6419,-0.0862 6.9111,1.96764 1.2693,2.05376 3.0483,2.99364 3.9532,2.08867 0.905,-0.90497 0.6693,-3.22479 -0.5237,-5.15514 z m 36.0636,-0.21894 c -1.1187,-1.80994 -4.9082,-3.29081 -8.4213,-3.29081 -3.513,0 -6.3874,1.48087 -6.3874,3.29081 0,1.80994 3.7896,3.2908 8.4213,3.2908 4.7761,0 7.5409,-1.42439 6.3874,-3.2908 z m -21.3903,-2.93872 c 0,-3.39592 -8.014,-6.9337 -15.7067,-6.9337 -4.3717,0 -4.1812,0.84324 1.0918,4.83156 7.2077,5.45158 14.6149,6.51701 14.6149,2.10214 z m 23.4938,-33.36963 c -9.0677,-7.55411 -20.203,-8.53365 -20.203,-1.7772 0,4.98551 6.3037,7.53226 19.7449,7.97708 l 8.227,0.27215 -7.7689,-6.47212 z m -59.6926,-82.16065 c 0,-1.80994 -1.5683,-3.2908 -3.4851,-3.2908 -1.9167,0 -2.5698,1.48086 -1.4511,3.2908 1.1186,1.80995 2.6868,3.29081 3.485,3.29081 0.7981,0 1.4512,-1.48086 1.4512,-3.29081 z m 28.5744,-128.95843 c -1.0505,-2.62519 -1.8303,-1.84541 -1.9882,1.9882 -0.1428,3.46905 0.6349,5.41268 1.7284,4.31918 1.0935,-1.09351 1.2104,-3.93183 0.2597,-6.30738 z"
         id="path3030"
         inkscape:connector-curvature="0" />
      <path
         style="fill:#4d4d4d;fill-opacity:1"
         d="m 528.16322,798.66106 c 0,-0.89776 3.13148,-10.89358 6.95884,-22.21293 5.31177,-15.70945 11.47685,-25.25397 26.04736,-40.32546 10.49869,-10.85966 26.04962,-30.11087 34.55763,-42.78047 19.77994,-29.45508 27.03259,-37.19828 59.13218,-63.13174 14.47954,-11.69812 40.5497,-34.00162 57.93368,-49.56334 l 31.60722,-28.29405 -12.67323,-16.7118 c -6.97027,-9.19145 -15.65988,-25.66318 -19.31022,-36.60382 -15.87997,-47.59459 -25.03496,-147.03957 -16.1965,-175.93259 1.93418,-6.32285 6.40314,-23.34299 9.93104,-37.82253 6.56708,-26.95334 20.07105,-64.64655 34.90273,-97.42291 6.5977,-14.58018 13.40917,-22.49916 32.51747,-37.80466 32.49579,-26.0287 63.0702,-44.12132 74.55987,-44.12132 5.19165,0 13.43814,-2.02816 18.32561,-4.50701 4.88747,-2.478858 23.92406,-6.989285 42.3035,-10.023176 56.74023,-9.366082 113.4774,0.9902 170.6127,31.142086 50.7101,26.76112 55.2531,29.67091 88.6786,56.79912 12.4735,10.12346 36.5524,42.42851 47.0917,63.17964 16.8493,33.17499 30.4154,88.63029 30.4154,124.33157 0,25.39086 -13.4438,111.64607 -21.7595,139.60794 -6.3663,21.40745 -19.263,39.87462 -45.1635,64.67104 -18.9643,18.1559 -30.5064,24.89178 -82.8086,48.32623 -24.2189,10.85147 -59.9583,19.46242 -81.0445,19.52662 -28.98941,0.0882 -29.83475,5.43819 -4.2095,26.64012 29.5437,24.44401 29.8418,24.55724 28.2266,10.72207 -1.1445,-9.80357 -0.4284,-11.43627 4.5922,-10.4694 3.4911,0.67235 7.0923,5.56127 8.7182,11.83561 4.0101,15.47554 13.9836,14.80741 11.4562,-0.76744 -2.1395,-13.18425 2.0179,-17.61009 9.5071,-10.12088 3.6497,3.64977 4.5147,8.14077 2.9446,15.28938 -2.0288,9.23683 -1.5477,10.0261 5.5022,9.02806 5.6402,-0.79844 8.0063,-3.53613 8.7665,-10.14334 1.5682,-13.62841 10.4766,-11.68839 10.4766,2.28151 0,7.97882 -2.1639,12.84681 -7.3139,16.45403 -7.0312,4.92485 -7.0566,5.12279 -0.6581,5.12279 3.6606,0 8.3841,-1.72849 10.4967,-3.84109 5.5623,-5.56225 9.314,5.7337 4.0221,12.11 -5.1655,6.22406 -24.267,6.36287 -29.3706,0.21357 -2.1366,-2.57449 -8.2547,-6.20428 -13.5958,-8.06619 -8.9808,-3.13074 -9.4581,-2.91253 -6.3464,2.9017 1.8506,3.45788 8.601,10.28094 15.0009,15.16239 l 11.6362,8.8754 13.8234,-7.69414 c 7.6028,-4.23177 17.5254,-10.22087 22.0503,-13.30913 4.5249,-3.08826 16.8485,-11.17864 27.3859,-17.97866 10.5374,-6.80002 21.4853,-15.9141 24.3286,-20.25356 4.8243,-7.36288 4.6986,-8.32866 -1.8822,-14.45963 -7.931,-7.38885 -8.8157,-11.41646 -3.2618,-14.84897 2.0845,-1.28828 5.5797,0.10531 7.7671,3.09658 5.6329,7.70348 8.1877,6.75823 8.1877,-3.02932 0,-12.55179 10.5888,-8.97481 15.4456,5.21758 l 3.9278,11.47773 0.1856,-10.69511 c 0.1504,-8.65719 1.52,-10.69512 7.1879,-10.69512 6.3865,0 6.807,1.22049 4.7825,13.88124 l -2.2197,13.88128 7.9602,-7.47816 c 7.4075,-6.95907 8.118,-7.06668 10.2348,-1.5504 1.5873,4.13641 -0.33,8.16827 -6.3446,13.34175 -9.4989,8.17067 -18.2806,9.32318 -28.6705,3.76271 -5.8465,-3.12897 -7.9343,-2.23041 -14.596,6.28172 -11.4396,14.61706 -87.6078,63.1855 -99.0917,63.1855 -1.481,0 -12.1101,-9.01694 -23.6201,-20.03765 -15.5515,-14.89037 -22.7073,-19.62926 -27.8566,-18.44783 -3.8111,0.8744 -18.6428,4.70836 -32.9594,8.51983 -14.31658,3.81151 -33.75669,6.93001 -43.20025,6.93001 -9.73946,0 -18.63283,1.7802 -20.55015,4.11351 -1.85905,2.26243 -11.17897,19.43605 -20.71092,38.16363 -9.53198,18.72758 -19.24986,34.78655 -21.59535,35.68658 -10.75679,4.12779 -10.1004,-2.3758 2.38932,-23.67395 15.31278,-26.11218 24.45575,-47.09567 21.71488,-49.83655 -1.5141,-1.51407 -30.21641,4.54147 -43.39444,9.15525 -3.15177,1.10347 -77.97048,-71.73936 -117.93086,-114.81643 -14.38849,-15.51072 -17.87055,-21.05273 -14.12946,-22.48831 7.19819,-2.76221 13.14414,1.50702 30.2947,21.75189 21.08715,24.89165 31.91403,36.27949 68.59708,72.1513 l 31.78986,31.0868 14.72247,-3.93765 c 8.09739,-2.16575 20.62775,-3.93768 27.84531,-3.93768 12.34727,0 13.98497,-1.21549 27.71178,-20.56753 8.02397,-11.31215 19.24278,-27.04085 24.93071,-34.95267 15.95958,-22.19944 15.93204,-23.45627 -0.51425,-23.47854 -24.71836,-0.0334 -75.83796,-9.19741 -101.54435,-18.20336 -25.73497,-9.01595 -73.24064,-33.11764 -75.14006,-38.12177 -0.60332,-1.5895 -2.38863,-2.88996 -3.96737,-2.88996 -1.57873,0 -8.35203,-3.71992 -15.05177,-8.26647 -11.56259,-7.84659 -12.61475,-7.99685 -20.71368,-2.95807 -4.69278,2.91964 -10.75362,7.75018 -13.46854,10.73458 -4.69997,5.16649 -47.97618,42.698 -61.27709,53.14285 -11.94002,9.3762 -42.39418,34.53444 -45.79272,37.82945 -1.8752,1.81811 -11.09304,15.15252 -20.48409,29.63206 -9.39106,14.47954 -25.14001,34.47119 -34.99766,44.42587 -12.87516,13.00191 -20.08155,23.87848 -25.58718,38.61866 -5.36718,14.3695 -9.39016,20.53373 -13.42309,20.56753 -3.1674,0.0266 -5.75891,-0.68623 -5.75891,-1.584 z m 481.61338,-99.06324 15.9644,-5.45589 -7.7374,-7.01534 c -4.2555,-3.85844 -14.0661,-11.96511 -21.80123,-18.01486 -16.7064,-13.06624 -17.42166,-12.71047 -36.89789,18.3522 l -13.59672,21.68542 24.05223,-2.04784 c 13.22871,-1.12631 31.23621,-4.50297 40.01661,-7.50369 z m 65.2257,-82.20534 c 8.4557,-3.24717 18.5465,-8.29691 22.4239,-11.22165 6.5452,-4.93709 6.7712,-6.42408 3.1574,-20.77577 -2.1408,-8.50193 -5.1974,-15.45807 -6.7925,-15.45807 -1.5951,0 -2.9001,1.4238 -2.9001,3.16398 0,1.74018 -5.6994,4.69861 -12.6652,6.57434 -10.3009,2.77372 -17.5193,2.08278 -38.667,-3.70114 -14.301,-3.91132 -33.7763,-7.42527 -43.27851,-7.80878 -14.94723,-0.60327 -17.27672,0.13492 -17.27672,5.47336 0,3.39388 -1.11065,6.18076 -2.46811,6.19314 -1.35746,0.0132 -6.01368,5.22859 -10.34715,11.59156 -4.33346,6.363 -8.4779,10.9702 -9.20987,10.23826 -2.97453,-2.97456 3.31407,-18.56149 7.48875,-18.56149 2.47222,0 6.96091,-4.81281 9.97483,-10.69512 3.01395,-5.88232 7.12436,-11.78309 9.13422,-13.11284 6.1438,-4.06474 18.26426,-2.80041 26.80576,2.7962 10.7694,7.0564 10.3073,3.56957 -0.9049,-6.82691 -12.08412,-11.20506 -7.545,-10.57237 9.7426,1.35801 15.4279,10.64694 48.7545,18.94379 62.3683,15.52691 10.0767,-2.52908 16.9487,-16.79581 14.5259,-30.15677 -2.1228,-11.70678 -6.5699,-16.28327 -13.3096,-13.69699 -3.8699,1.48501 -4.6598,4.39302 -3.0239,11.13207 l 2.2143,9.12198 -7.0028,-8.22701 c -5.9282,-6.96447 -7.4982,-7.47194 -10.2306,-3.30684 -2.7889,4.2512 -3.8482,4.07155 -7.7915,-1.32122 -3.1714,-4.33715 -5.2832,-5.07758 -6.9214,-2.42684 -1.712,2.7701 -3.7243,2.4478 -7.3493,-1.17712 -5.5426,-5.54267 -11.0426,-3.8044 -11.0426,3.49003 0,6.17707 -4.6904,6.04982 -9.935,-0.26952 -3.4776,-4.19034 -3.2741,-4.67189 1.2425,-2.93872 3.7136,1.42502 5.4016,0.31 5.4016,-3.56756 0,-3.48539 -1.762,-4.96421 -4.6119,-3.87061 -2.8382,1.08912 -5.328,-0.96855 -6.4738,-5.35006 -1.4398,-5.50565 -2.75,-6.23174 -5.7792,-3.20255 -3.0292,3.02915 -2.8671,5.24163 0.7149,9.75885 4.4252,5.58052 4.233,5.58677 -4.3017,0.13953 -11.20323,-7.15049 -17.7417,-7.24497 -20.4087,-0.29485 -1.14122,2.97396 -2.79969,4.68245 -3.68551,3.79663 -0.88582,-0.88579 1.89077,-9.61271 6.17016,-19.39311 4.2794,-9.78044 8.76938,-21.85496 9.97773,-26.83231 1.20832,-4.97734 3.64962,-9.04971 5.42512,-9.04971 1.7755,0 3.2281,-1.56827 3.2281,-3.48503 0,-1.91676 -1.1711,-2.76125 -2.6023,-1.87668 -1.4313,0.8846 -2.7567,-3.10037 -2.9454,-8.85549 -0.1885,-5.75513 -0.8686,-12.50003 -1.5111,-14.9887 -0.695,-2.69204 2.8307,-5.73024 8.7042,-7.50073 5.4298,-1.63675 14.6008,-4.47869 20.3798,-6.31539 7.6702,-2.43776 12.2692,-2.23922 17.0321,0.73524 6.0247,3.76247 6.1021,4.38453 1.0104,8.11726 -4.7121,3.45449 -3.8388,3.95996 6.0036,3.4747 12.5175,-0.61713 17.9772,-7.51591 11.9338,-15.07956 -2.0387,-2.55162 -3.7068,-8.47507 -3.7068,-13.16322 0,-7.11403 -2.0412,-9.02813 -12.3405,-11.57241 -6.7873,-1.67667 -12.3405,-4.096 -12.3405,-5.37629 0,-1.28029 -4.666,-1.96073 -10.3689,-1.51213 -12.3929,0.9749 -22.3583,15.38771 -15.9655,23.09063 2.8878,3.47953 2.1985,5.30297 -3.0704,8.12279 -8.91051,4.76878 -8.93384,-0.32381 -0.1214,-26.48328 3.67,-10.89428 5.8308,-21.17012 4.8017,-22.83518 -1.0291,-1.66508 0.4557,-7.52686 3.2995,-13.02619 3.8117,-7.37089 4.2794,-11.66388 1.7799,-16.33432 -4.6823,-8.74906 -4.3251,-9.68723 2.9632,-7.78129 4.0436,1.05742 5.657,3.47772 4.4372,6.65636 -1.6505,4.30113 -0.8191,4.40737 5.9867,0.76506 4.3468,-2.32635 7.9033,-4.33737 7.9033,-4.46894 0,-0.13156 6.8508,4.68066 15.224,10.69383 13.8491,9.94574 25.1495,25.4241 21.3415,29.23209 -0.8389,0.83884 -4.7837,-2.22251 -8.7664,-6.80299 -5.7819,-6.64969 -9.5077,-8.03798 -18.4867,-6.88838 -9.3097,1.19193 -11.0792,0.44871 -10.279,-4.31738 0.6141,-3.65749 -1.1338,-5.7573 -4.7922,-5.7573 -3.1674,0 -5.6325,1.3153 -5.4779,2.92289 0.1547,1.60758 -1.0983,3.82887 -2.7841,4.9362 -1.6859,1.10733 -4.0365,5.98498 -5.2238,10.83922 -2.3923,9.78131 1.1389,11.9253 19.8372,12.0444 13.1221,0.0836 26.8701,8.86292 29.3497,18.74251 3.6342,14.47981 33.6009,20.30556 48.428,9.41477 4.6778,-3.4359 9.5421,-10.68969 10.8097,-16.11952 1.2676,-5.42983 2.9398,-8.04102 3.716,-5.80261 0.7763,2.23837 -2.4077,12.14248 -7.0753,22.00914 -4.6677,9.86665 -8.4867,19.51194 -8.4867,21.43393 0,1.92203 -2.4026,3.49461 -5.3391,3.49461 -4.3729,0 -4.5977,0.89342 -1.2425,4.93621 2.2532,2.71491 5.9553,4.93621 8.227,4.93621 7.1884,0 12.2042,8.49682 7.3796,12.50098 -2.4481,2.03167 -4.6358,12.77352 -5.2113,25.58716 -0.6098,13.57882 -2.8028,23.89631 -5.6935,26.78712 -4.0752,4.07514 -4.7164,3.90293 -4.8113,-1.2922 -0.096,-5.27305 -0.8681,-5.0841 -6.4166,1.57116 -6.9663,8.35569 -5.6153,16.90599 2.7647,17.49764 4.6396,0.32744 4.5897,0.59528 -0.3521,1.88672 -8.5429,2.23245 -8.8867,23.89602 -0.6305,39.72282 2.5869,4.95891 4.7126,10.86729 4.7237,13.12972 0.066,13.40786 39.8085,-8.17581 67.8234,-36.83418 29.7265,-30.40925 34.6329,-42.39045 47.9174,-117.01097 5.7917,-32.53267 5.7735,-112.20559 -0.03,-131.63222 -14.0022,-46.87036 -32.5972,-83.62114 -55.4794,-109.64834 -21.8381,-24.83949 -89.8957,-64.81169 -141.1103,-82.87817 -52.90267,-18.661952 -118.08638,-18.645669 -162.62496,0.0406 -9.95726,4.17759 -24.02544,8.68595 -31.26267,10.01857 -7.23723,1.33264 -17.15425,5.54117 -22.03783,9.35231 -53.98362,42.12839 -54.80269,42.92643 -62.73929,61.12727 -16.77324,38.46577 -28.86854,71.97499 -33.93321,94.00968 -2.89677,12.60286 -6.61808,26.3159 -8.26959,30.47344 -4.12741,10.39044 -3.78378,85.56948 0.51273,112.17581 4.74692,29.39541 15.86291,72.39183 21.56886,83.42784 7.61988,14.73784 24.50869,32.12978 31.20027,32.12978 3.43239,0 6.24071,1.40971 6.24071,3.13271 0,3.09902 23.58721,20.62371 39.48966,29.33977 36.74958,20.14229 61.99937,30.23023 78.23966,31.2587 7.62509,0.48289 10.30269,-0.55634 9.15298,-3.55246 -0.89382,-2.32926 0.27044,-4.23503 2.58726,-4.23503 2.31683,0 7.29575,-2.87255 11.06425,-6.38344 3.7685,-3.5109 7.45052,-5.78478 8.18226,-5.05303 0.73174,0.73174 7.11219,-5.96873 14.1788,-14.88998 7.06661,-8.92124 13.33085,-15.73791 13.92057,-15.1482 3.53425,3.53426 -8.08453,20.85045 -23.81161,35.48798 -10.04338,9.34757 -17.06026,18.19595 -15.59312,19.66309 10.16125,10.16125 143.22387,10.84623 169.19957,0.87101 z M 962.54954,573.42202 c 0,-1.70312 1.46391,-4.00135 3.25312,-5.10713 1.86543,-1.1529 2.4171,0.16816 1.29332,3.09658 -2.18769,5.70106 -4.54644,6.74415 -4.54644,2.01055 z m 6.58161,-12.40604 c 0,-1.88997 2.59151,-5.46872 5.75891,-7.95279 5.32702,-4.17771 5.39685,-4.02284 0.9312,2.06518 -2.65525,3.61989 -5.24676,7.19864 -5.75891,7.95279 -0.51215,0.75412 -0.9312,-0.1752 -0.9312,-2.06518 z m 98.10715,-13.0718 c 2.3755,-0.95062 5.2138,-0.83373 6.3074,0.25964 1.0935,1.09351 -0.8502,1.87129 -4.3192,1.7284 -3.8336,-0.15796 -4.6134,-0.93768 -1.9882,-1.98817 z m -23.8743,-4.02673 c -1.0143,-1.64116 1.1196,-2.20885 4.7419,-1.2616 7.684,2.0094 8.6554,4.24551 1.8442,4.24551 -2.6081,0 -5.5719,-1.34275 -6.5861,-2.98391 z m 77.1442,-16.76093 c 0,-1.80994 1.5683,-3.2908 3.485,-3.2908 1.9168,0 2.5698,1.48086 1.4512,3.2908 -1.1186,1.80995 -2.6869,3.29081 -3.485,3.29081 -0.7982,0 -1.4512,-1.48086 -1.4512,-3.29081 z M 866.01926,505.21781 c -4.3055,-4.30546 -2.0867,-7.03433 4.35071,-5.35092 3.59954,0.94131 5.73343,3.02396 4.74201,4.62813 -2.13918,3.46123 -6.04389,3.77166 -9.09272,0.72279 z m 55.39521,-60.33142 c 1.11861,-1.80994 2.68688,-3.29081 3.48503,-3.29081 0.79815,0 1.45118,1.48087 1.45118,3.29081 0,1.80994 -1.56827,3.2908 -3.48503,3.2908 -1.91676,0 -2.56979,-1.48086 -1.45118,-3.2908 z m -111.88738,-9.87242 c -2.57401,-4.16484 1.78239,-4.16484 8.22701,0 4.25398,2.74914 4.16712,3.19699 -0.62849,3.24043 -3.06058,0.0277 -6.47992,-1.43048 -7.59852,-3.24043 z m 55.94369,-13.16322 c 1.11861,-1.80994 2.68688,-3.2908 3.48503,-3.2908 0.79815,0 1.45118,1.48086 1.45118,3.2908 0,1.80994 -1.56827,3.29081 -3.48503,3.29081 -1.91676,0 -2.56979,-1.48087 -1.45118,-3.29081 z m 235.55242,-34.82769 c 0.1579,-3.8336 0.9377,-4.61338 1.9881,-1.98819 0.9507,2.37555 0.8338,5.21385 -0.2596,6.30738 -1.0935,1.09351 -1.8713,-0.85014 -1.7284,-4.31919 z m 18.1476,-8.41403 c -2.6481,-16.55984 -5.1996,-21.38968 -8.4884,-16.06819 -1.7321,2.80256 -3.0096,2.38546 -4.4872,-1.46498 -1.3173,-3.4329 -0.7594,-4.57574 1.54,-3.15462 3.7667,2.3279 1.9974,-7.12583 -3.7404,-19.98603 -9.3167,-20.88205 -12.3988,-31.60257 -10.8205,-37.63793 1.0104,-3.86387 0.1922,-6.78794 -1.8995,-6.78794 -2.0211,0 -3.6747,-2.22129 -3.6747,-4.93621 0,-2.71491 -1.4808,-4.9362 -3.2908,-4.9362 -1.8099,0 -3.2908,-1.58066 -3.2908,-3.51257 0,-2.015 2.8061,-2.62196 6.5816,-1.42364 3.6199,1.1489 6.5817,0.7664 6.5817,-0.85001 0,-3.65958 -14.2225,-17.24942 -18.0524,-17.24942 -1.5508,0 -5.5,-2.42567 -8.7759,-5.39038 -4.8558,-4.39445 -6.8798,-4.62401 -10.9543,-1.24246 -3.4257,2.84306 -4.9979,2.98593 -4.9979,0.45417 0,-2.03156 1.4808,-3.69375 3.2908,-3.69375 7.1698,0 2.8654,-16.29479 -6.6633,-25.22479 -5.4747,-5.13077 -15.2542,-17.61521 -21.7321,-27.7432 -6.4779,-10.128 -16.1692,-21.00854 -21.5364,-24.17897 -5.3671,-3.17044 -9.04224,-6.48057 -8.16698,-7.35583 3.56248,-3.5625 15.07938,6.27349 28.43488,24.28481 20.5658,27.73526 33.8162,41.11309 36.4693,36.82026 1.6353,-2.64598 2.8551,-2.64307 4.4953,0.0109 1.238,2.00318 0.6827,3.64214 -1.2341,3.64214 -6.0484,0 -3.8283,5.47234 7.2101,17.77254 l 10.6951,11.91766 19.7449,-5.45929 c 10.8596,-3.00261 21.5959,-7.74465 23.8583,-10.53786 3.5689,-4.40617 4.1135,-4.42888 4.1135,-0.17155 0,2.69886 -1.6554,6.56239 -3.6786,8.58563 -2.7109,2.71094 0.1023,4.52267 10.6951,6.88735 l 14.3738,3.20874 -22.213,0.35242 c -12.2171,0.19383 -22.2129,1.7275 -22.2129,3.40817 0,1.68066 -2.091,5.14676 -4.6467,7.70243 -9.4855,9.48551 -4.7119,52.61482 5.149,46.52048 2.4788,-1.53201 2.9083,-0.90035 1.232,1.81194 -1.6047,2.59648 0.4302,6.81374 5.4059,11.20358 4.3886,3.87186 6.0224,5.71808 3.6308,4.1027 -2.3917,-1.61538 -5.0598,-2.22573 -5.9292,-1.35633 -2.6488,2.64879 5.5554,23.60912 12.068,30.83191 7.2552,8.04621 7.8462,15.65366 1.6178,20.82277 -3.6559,3.03412 -4.9227,1.14803 -6.7018,-9.97829 z m -40.6776,-2.82665 c -2.1568,-3.45367 -2.6393,-7.07182 -1.0722,-8.04034 1.5671,-0.96852 3.6993,1.48966 4.7383,5.46263 2.4715,9.45087 1.1893,10.35238 -3.6661,2.57771 z m 12.3978,1.44829 c 0,-2.82174 1.505,-4.20027 3.3444,-3.06342 1.8395,1.13685 2.4926,3.44554 1.4512,5.13042 -2.821,4.56449 -4.7956,3.71338 -4.7956,-2.067 z m -64.1376,-4.79568 c 1.1369,-1.83946 3.4456,-2.4925 5.1304,-1.45119 4.5645,2.82101 3.7134,4.79568 -2.067,4.79568 -2.8217,0 -4.2002,-1.50502 -3.0634,-3.34449 z m -81.97523,-26.94457 c -7.46078,-4.17528 -6.53784,-8.91749 1.33488,-6.85873 3.62953,0.94914 8.44233,0.21917 10.69512,-1.62213 2.25279,-1.84132 8.29984,-2.87249 13.4379,-2.2915 5.91358,0.66869 15.57509,-2.56199 26.32645,-8.80322 14.23628,-8.26421 15.64718,-8.62187 8.71958,-2.21041 -4.5458,4.20705 -10.75952,9.61525 -13.80835,12.01823 -8.27908,6.52522 -40.46987,13.25744 -46.70558,9.76776 z m -39.6342,-12.19444 c -2.50012,-4.04531 1.35229,-13.4602 5.50769,-13.4602 2.01983,0 1.81738,1.83669 -0.51185,4.64324 -4.27989,5.15695 0.5833,10.43148 6.33845,6.87458 1.80995,-1.1186 3.29081,-0.46557 3.29081,1.45119 0,4.2551 -12.04876,4.65975 -14.6251,0.49119 z m 229.28163,-4.20481 c 0.7164,-2.1493 3.0621,-4.49434 5.2126,-5.21118 2.4048,-0.80159 3.1403,0.70287 1.9104,3.90783 -2.2954,5.98174 -9.0974,7.22635 -7.123,1.30335 z m -15.1848,-6.25514 c -21.5474,-16.94925 -21.6387,-35.46412 -0.2188,-44.41391 12.422,-5.19025 33.0435,-6.2147 35.7857,-1.77778 0.9789,1.58391 -4.6642,2.15351 -12.5402,1.26576 -14.977,-1.68813 -22.4267,3.08494 -15.5491,9.96253 2.0142,2.01423 3.6622,5.12995 3.6622,6.92384 0,1.79389 -1.9489,0.59626 -4.331,-2.6614 -6.2047,-8.48548 -17.0592,-5.4885 -17.0592,4.71014 0,5.3458 1.619,7.83241 4.6705,7.17357 3.6178,-0.78109 3.8209,0.0155 0.901,3.53364 -4.1465,4.99628 0.5388,12.28336 7.8978,12.28336 2.1593,0 4.7783,2.2213 5.8202,4.93621 2.4901,6.48917 1.3656,6.24832 -9.0391,-1.93596 z m 34.1755,5.72103 c 0,-0.76049 3.8845,-3.92793 8.6321,-7.03874 4.7477,-3.11082 7.627,-4.02952 6.3984,-2.04158 -2.3479,3.79889 -15.0305,11.46082 -15.0305,9.08032 z M 917.21471,312.67431 c -5.69224,-5.69225 1.44684,-13.40765 8.77648,-9.48495 4.86075,2.6014 31.53625,4.5367 51.72636,3.75272 3.81757,-0.14825 13.81339,-6.31882 22.21294,-13.71241 18.11791,-15.94802 19.95191,-27.51678 7.04491,-44.43871 -4.5248,-5.93239 -8.227,-12.36584 -8.227,-14.29655 0,-1.9307 -1.16159,-3.51037 -2.58128,-3.51037 -1.41972,0 -5.36908,-4.71937 -8.77641,-10.4875 -6.12182,-10.3634 -5.96472,-10.31168 13.27639,4.37027 10.7093,8.17178 24.2542,17.6352 30.0996,21.02984 11.2738,6.54704 9.2512,11.26734 -4.8692,11.36344 -4.0723,0.0277 -7.4043,1.53126 -7.4043,3.3412 0,1.80994 7.7746,3.44939 17.2768,3.64322 l 17.2767,0.35242 -14.0523,3.14518 c -13.371,2.99268 -16.4988,9.25653 -4.6756,9.3636 4.4174,0.04 4.6354,0.63906 1.0574,2.90565 -3.274,2.07405 -1.0231,3.98913 8.2271,6.99947 12.2876,3.99888 28.3779,13.08012 23.1754,13.08012 -1.3976,0 -6.5399,-2.04618 -11.4273,-4.54707 -11.9552,-6.11743 -36.8582,-10.1284 -36.8582,-5.93652 0,1.79197 -4.0723,4.94803 -9.0497,7.01345 -4.9773,2.06542 -14.26263,6.50429 -20.63399,9.86415 -15.41759,8.13029 -50.00853,11.08046 -58.09111,4.95444 -7.90708,-5.99299 -11.1892,-5.93017 -8.84858,0.16938 2.27592,5.93094 0.59504,6.31569 -4.65511,1.06554 z m 218.65059,1.6768 c -3.5756,-3.57562 -2.5016,-15.92692 1.7551,-20.18361 11.0298,-11.02982 32.3566,5.41718 22.4706,17.32909 -4.2103,5.07311 -20.1312,6.94906 -24.2257,2.85452 z M 1035.77,301.75007 c -4.9312,-5.6008 -5.2318,-8.24073 -0.9385,-8.24073 1.7463,0 4.7601,2.96173 6.6974,6.58161 4.0376,7.54435 0.3564,8.60491 -5.7589,1.65912 z m -93.78799,-3.92756 c -3.16741,-0.82772 -5.75891,-2.7386 -5.75891,-4.24638 0,-1.50778 3.1133,-1.92728 6.91845,-0.93221 4.05335,1.05997 8.12089,-0.0897 9.82204,-2.77619 2.38774,-3.77083 2.91249,-3.79212 2.95396,-0.11981 0.0296,2.60949 2.1021,3.67827 4.98659,2.57138 2.71491,-1.04181 4.9362,-0.61825 4.9362,0.94124 0,5.6263 -11.42557,7.81099 -23.85833,4.56197 z m 129.16409,-2.66777 c 0,-2.71491 0.582,-4.9362 1.2933,-4.9362 0.7114,0 2.1457,2.22129 3.1876,4.9362 1.0418,2.71492 0.4598,4.93621 -1.2933,4.93621 -1.7532,0 -3.1876,-2.22129 -3.1876,-4.93621 z m 96.9435,1.42647 c -1.1931,-1.93036 -1.4634,-4.21553 -0.6008,-5.07814 0.8626,-0.86261 2.4453,0.71677 3.5171,3.50975 2.2251,5.79875 0.3287,6.81874 -2.9163,1.56839 z m -193.47376,-8.55654 c -3.99721,-3.99721 -2.27379,-7.50264 2.74232,-5.57779 2.71492,1.04181 4.93621,0.25491 4.93621,-1.74868 0,-2.00359 1.4934,-3.64289 3.31868,-3.64289 1.96721,0 1.64484,2.6803 -0.79157,6.58162 -4.35183,6.96835 -6.64091,7.9525 -10.20564,4.38774 z m -56.62749,-4.60668 c -1.19302,-1.93036 -1.46336,-4.21553 -0.60074,-5.07814 0.86259,-0.86261 2.44527,0.71677 3.51705,3.50975 2.22518,5.79875 0.32875,6.81874 -2.91631,1.56839 z m 18.16821,-9.77778 c -8.03806,-15.01925 7.68475,-28.94956 20.04719,-17.7617 3.49019,3.15856 6.34579,8.17888 6.34579,11.15626 0,13.38806 -20.07424,18.41209 -26.39298,6.60544 z m 125.99564,4.34347 c 5.008,-0.75696 8.2526,-2.75638 7.2101,-4.44314 -1.0425,-1.68676 -0.4145,-3.06684 1.3954,-3.06684 1.8099,0 4.1101,1.3257 5.1115,2.94598 2.2546,3.64807 -6.1451,7.09278 -15.6874,6.43337 -5.3132,-0.36717 -4.8101,-0.8445 1.9704,-1.86937 z M 913.43782,266.80399 c -0.58662,-20.16402 24.39593,-34.24165 46.87509,-26.41406 10.4414,3.63585 10.43528,3.64036 -2.87221,2.12012 -18.01772,-2.05833 -34.33475,6.84871 -39.69159,21.66659 -3.77749,10.4492 -4.0784,10.63259 -4.31129,2.62735 z m 72.52909,4.76156 c -0.20995,-2.11439 -1.34011,-6.55698 -2.51148,-9.87242 -1.65244,-4.67712 -1.21453,-5.18452 1.95402,-2.26409 2.24607,2.07017 3.37623,6.51276 2.51148,9.87241 -0.86476,3.35966 -1.74407,4.3785 -1.95402,2.2641 z m 12.78149,-6.3752 c 0,-16.5127 -34.90416,-44.07873 -55.81259,-44.07873 -5.50193,0 -10.00352,-1.48086 -10.00352,-3.2908 0,-5.54351 19.28234,-3.66052 32.72084,3.1953 19.90542,10.15499 42.41487,41.23492 35.13587,48.5139 -1.12233,1.12234 -2.0406,-0.83051 -2.0406,-4.33967 z m 156.3366,2.03024 c -1.1529,-1.86542 0.1681,-2.41712 3.0965,-1.29332 5.7011,2.1877 6.7442,4.54643 2.0106,4.54643 -1.7031,0 -4.0014,-1.4639 -5.1071,-3.25311 z m -83.9766,-36.10495 c 3.4886,-12.16419 33.1468,-42.91207 41.3912,-42.91207 3.4198,0 4.6796,1.13657 2.9079,2.62327 -1.7195,1.44279 -11.6413,9.70204 -22.0484,18.35388 -10.6397,8.84514 -18.9222,18.41508 -18.9222,21.86356 0,3.37312 -1.3857,6.98934 -3.0793,8.03606 -1.8861,1.16569 -1.9827,-1.92046 -0.2491,-7.9647 z m -18.6766,-20.69913 c -1.8548,-4.07238 -6.8951,-18.51078 -11.2007,-32.08536 -4.3055,-13.57457 -10.4425,-29.53888 -13.6377,-35.47625 -7.8876,-14.65705 -7.3079,-16.44089 2.384,-7.33582 9.7118,9.12374 20.4518,36.12609 21.6523,54.43748 0.4707,7.1806 2.8673,16.38757 5.3258,20.45995 2.4585,4.07237 3.2052,7.40431 1.6593,7.40431 -1.5458,0 -4.3281,-3.33194 -6.183,-7.40431 z m 15.4235,-18.4121 c 0,-1.52942 2.7443,-5.2643 6.0984,-8.29973 4.6463,-4.20487 7.9764,-4.76775 13.9859,-2.36403 l 7.8876,3.15493 -9.153,0.2086 c -5.0342,0.11472 -10.0054,2.42988 -11.0472,5.14479 -2.0115,5.24169 -7.7717,6.83926 -7.7717,2.15544 z m 0.7022,-18.09463 3.4942,-11.38521 10.0098,6.08734 c 5.5054,3.34804 11.5953,5.20641 13.5332,4.12971 1.9378,-1.07669 1.7482,-0.0394 -0.4213,2.30514 -3.2166,3.47618 -5.4532,3.27423 -12.1206,-1.09438 -7.8091,-5.11674 -8.2228,-5.03949 -9.2187,1.72115 -0.5734,3.89307 -2.7814,7.65052 -4.9067,8.34988 -2.9051,0.95599 -2.9969,-1.55406 -0.3699,-10.11363 z m -3.9426,-20.88815 c -0.028,-3.96556 1.4305,-8.12533 3.2404,-9.24393 4.1898,-2.58945 4.1898,5.03455 0,11.51782 -2.5934,4.01305 -3.1994,3.5878 -3.2404,-2.27389 z m -140.26631,-8.98679 c -0.98754,-2.57348 0.0474,-8.12277 2.30007,-12.33175 2.59437,-4.84764 4.61065,-6.10757 5.50075,-3.43731 0.77281,2.31846 -0.39707,6.38689 -2.59974,9.04095 -3.2392,3.90299 -2.9841,4.82556 1.33429,4.82556 2.93652,0 5.33914,1.48087 5.33914,3.29081 0,5.05387 -9.84405,3.90299 -11.87451,-1.38826 z m 132.69421,-1.95383 c 1.8533,-7.0869 7.5217,-12.35742 7.5217,-6.99368 0,5.61248 -3.8967,13.62658 -6.6256,13.62658 -1.4468,0 -1.8501,-2.98481 -0.8961,-6.6329 z m 10.8125,381.78471 c -7.4767,-7.47671 -13.1393,-8.53441 -13.2136,-2.46811 -0.033,2.5846 -0.949,2.87518 -2.4681,0.7818 -1.3297,-1.83242 -6.6389,-3.5361 -11.7981,-3.78597 -13.2175,-0.6401 -5.9596,5.77875 10.0357,8.87546 23.0735,4.46704 24.9485,4.10124 17.4441,-3.40318 z m 31.0322,-10.2453 c -0.9918,-1.60486 -0.5719,-2.91792 0.9333,-2.91792 1.5052,0 5.3309,-4.81715 8.5016,-10.70476 10.231,-18.99776 -0.6165,-45.23893 -18.7007,-45.23893 -4.3179,0 -12.0925,-2.21218 -17.2767,-4.91594 -11.1996,-5.84102 -19.7056,-6.33121 -22.8062,-1.31435 -1.5708,2.54159 -3.1425,2.29297 -5.2011,-0.8227 -2.2449,-3.39759 -7.6528,0.47236 -22.6243,16.19027 -29.06954,30.51886 -25.23381,42.52517 5.4712,17.12551 16.6273,-13.75434 31.4887,-19.63156 49.7204,-19.66282 7.0979,-0.0132 10.6951,1.56731 10.6951,4.69608 0,2.59295 2.9618,5.65446 6.5817,6.80337 8.5339,2.70857 8.6548,15.95258 0.3024,33.12417 -6.7099,13.79482 -5.9481,20.64345 1.5996,14.37943 2.5339,-2.10289 3.7955,-5.13655 2.8036,-6.74141 z m -73.8127,-45.10124 c 0,-3.97711 6.2434,-8.61398 8.5255,-6.33184 0.8283,0.82829 -0.7511,3.37919 -3.5097,5.66867 -3.1276,2.59563 -5.0158,2.8453 -5.0158,0.66317 z m -21.8383,43.84761 c -1.0378,-2.70452 -3.2127,-4.09798 -4.83291,-3.09658 -4.64639,2.87162 -3.43557,8.0139 1.88691,8.0139 2.9357,0 4.0922,-1.93039 2.946,-4.91732 z m 77.782,1.62651 c 0,-1.80994 -1.4808,-3.2908 -3.2908,-3.2908 -1.8099,0 -3.2908,1.48086 -3.2908,3.2908 0,1.80995 1.4809,3.29081 3.2908,3.29081 1.81,0 3.2908,-1.48086 3.2908,-3.29081 z m -65.8161,-9.87241 c 0,-1.80995 -3.0491,-3.29081 -6.7758,-3.29081 -3.7267,0 -5.8606,1.48086 -4.742,3.29081 1.1186,1.80994 4.1677,3.2908 6.7758,3.2908 2.6081,0 4.742,-1.48086 4.742,-3.2908 z m 55.3413,-1.49946 c 3.2504,5.54461 4.2298,5.75223 7.0734,1.49946 2.2149,-3.31246 3.3172,-3.5831 3.3511,-0.82271 0.026,2.26243 2.3802,4.11351 5.2278,4.11351 3.1733,0 4.7343,-2.22926 4.0324,-5.75891 -0.762,-3.83234 -3.595,-5.41449 -8.4683,-4.72935 -4.0277,0.56625 -7.3232,-0.6318 -7.3232,-2.66232 0,-2.03053 -1.4639,-2.78712 -3.2531,-1.68134 -1.8654,1.1529 -2.4171,-0.16816 -1.2933,-3.09658 1.2288,-3.20225 0.1375,-5.10714 -2.9256,-5.10714 -2.6869,0 -6.7288,-2.22129 -8.982,-4.9362 -2.8304,-3.41046 -2.955,-4.93621 -0.4029,-4.93621 2.0315,0 3.6937,1.30816 3.6937,2.907 0,3.42566 11.9634,7.06825 14.5895,4.44219 3.0575,-3.05752 -5.1712,-10.64 -11.5468,-10.64 -7.952,0 -22.7875,6.86512 -22.7875,10.54489 0,1.59878 1.851,2.68129 4.1135,2.40558 2.2624,-0.27577 7.3627,0.55088 11.3339,1.83686 5.7019,1.84641 6.394,3.23141 3.2908,6.58537 -3.1642,3.4199 -4.4433,2.88919 -6.5667,-2.72463 -2.1935,-5.79915 -3.1537,-6.15485 -5.7085,-2.11483 -4.9447,7.81925 -3.6509,13.08401 3.2152,13.08401 3.513,0 7.4707,1.75278 8.7947,3.89506 1.6541,2.67651 3.0895,1.95004 4.5881,-2.32212 2.1202,-6.04419 2.2859,-6.0381 5.9538,0.21851 z m -47.1143,-5.08215 c 1.1187,-1.80995 0.4656,-3.29081 -1.4511,-3.29081 -1.9168,0 -3.4851,1.48086 -3.4851,3.29081 0,1.80994 0.6531,3.2908 1.4512,3.2908 0.7982,0 2.3664,-1.48086 3.485,-3.2908 z m 16.1127,-1.94237 c 2.4977,-6.50892 -0.2043,-11.22086 -6.4345,-11.22086 -2.6081,0 -4.742,2.71492 -4.742,6.03314 0,10.65842 7.7048,14.2347 11.1765,5.18772 z m 57.1455,-9.20922 c 0.8616,-10.41069 -9.9596,-13.42941 -17.6558,-4.92528 -6.9744,7.7066 -3.3191,12.33683 5.4272,6.87469 5.3147,-3.31908 6.432,-3.15454 6.432,0.94729 0,8.15642 5.0925,5.61164 5.7966,-2.8967 z m -85.4115,-30.07056 c -1.0132,-1.0132 -2.8533,0.81319 -4.0891,4.05865 -1.7859,4.69006 -1.4079,5.06804 1.8422,1.8422 2.249,-2.23229 3.2601,-4.88764 2.2469,-5.90085 z m 87.8601,-11.41057 c -6.4083,-7.08112 -19.6339,-8.8446 -23.1892,-3.09204 -3.0881,4.99666 -0.016,7.08353 14.0849,9.56581 15.376,2.70685 16.6152,1.82571 9.1043,-6.47377 z"
         id="path3028"
         inkscape:connector-curvature="0" />
      <path
         style="fill:#333333;fill-opacity:1"
         d="m 531.47725,791.24366 c 1.57002,-4.97735 4.77678,-14.92861 7.12612,-22.11389 2.47816,-7.57925 11.76735,-20.70473 22.12529,-31.26265 9.81956,-10.00918 26.96058,-31.52624 38.09115,-47.81573 16.2784,-23.82329 27.68092,-35.73308 58.28684,-60.8799 20.92719,-17.19446 45.61597,-38.1685 54.86396,-46.60903 9.24798,-8.44048 20.77635,-18.46276 25.6186,-22.27167 l 8.80409,-6.92527 -6.65479,-7.34561 c -17.95606,-19.81996 -30.95048,-51.70161 -37.86715,-92.90651 -5.96088,-35.51101 -5.10947,-130.63982 1.38429,-154.66785 2.93491,-10.85966 6.91431,-25.87165 8.84311,-33.35998 1.9288,-7.48833 7.09271,-22.29695 11.47536,-32.90805 4.38264,-10.6111 11.2648,-27.84791 15.29367,-38.30403 5.75231,-14.9289 11.65184,-22.7449 27.47445,-36.3995 40.28622,-34.76623 71.60938,-53.68588 82.17151,-49.63281 2.64061,1.0133 10.64207,-1.13747 17.78101,-4.77949 32.24842,-16.451923 114.5485,-17.425713 160.42544,-1.89818 56.7588,19.21057 132.3038,64.38531 154.6679,92.48901 57.6132,72.39923 72.4283,145.87697 52.5788,260.77326 -10.4669,60.58655 -19.9778,81.51667 -50.5159,111.16699 -15.0211,14.58449 -30.0006,25.14251 -48.1342,33.92666 -64.1167,31.05898 -76.1231,34.9856 -116.0245,37.94532 -34.70058,2.5739 -35.67894,6.93787 -6.9019,30.78535 13.3112,11.03098 25.5067,20.07875 27.1009,20.1061 1.5943,0.0263 2.0576,-5.13323 1.0296,-11.46803 -2.7287,-16.81526 6.3236,-15.27734 10.9377,1.85825 4.4075,16.36824 11.6123,15.47317 11.0852,-1.37714 -0.2495,-7.97342 1.0917,-11.99893 3.9977,-11.99893 5.3232,0 10.8655,9.92918 8.7857,15.73989 -0.8311,2.32212 -0.653,6.45837 0.3959,9.19161 3.0769,8.01838 15.1679,-0.36189 15.1679,-10.5129 0,-11.95283 7.9854,-8.11273 9.2346,4.44084 0.7447,7.48306 -0.9212,11.47652 -6.3831,15.30221 -8.8333,6.18711 -6.2456,10.66682 3.2319,5.59464 7.7311,-4.1376 13.6829,-4.61391 13.611,-1.08933 -0.2409,11.79563 -21.7186,16.85146 -33.269,7.83146 -9.5857,-7.48566 -22.6243,-11.87336 -22.6243,-7.61344 0,3.35741 24.926,26.93113 28.476,26.93113 4.5906,0 37.28,-17.35268 40.8951,-21.70849 2.1079,-2.53988 5.2445,-4.61796 6.9703,-4.61796 4.7639,0 42.3737,-29.72044 44.447,-35.12339 0.9993,-2.60411 -1.2845,-7.62413 -5.0751,-11.15566 -3.9371,-3.6679 -6.0604,-8.58821 -4.9524,-11.47567 1.7427,-4.54154 2.5094,-4.53914 7.5511,0.023 7.5366,6.82049 9.3816,6.41651 10.6232,-2.32604 1.6019,-11.27927 10.4371,-8.83216 14.8518,4.11351 2.2328,6.54745 4.1854,9.03263 4.5249,5.75891 0.3284,-3.1674 0.7821,-7.60999 1.0084,-9.87242 0.2261,-2.26243 2.6326,-4.11351 5.3475,-4.11351 3.6818,0 4.691,3.13611 3.9711,12.34052 -1.0441,13.35116 1.2495,15.45975 7.5074,6.90155 5.6671,-7.75018 12.6446,-2.74187 8.0752,5.79622 -5.1197,9.56628 -18.5945,13.7842 -30.6311,9.58819 -9.0989,-3.17191 -10.9078,-2.51072 -20.6932,7.56389 -12.4984,12.8677 -48.5321,37.57971 -75.4222,51.72471 -21.9687,11.55622 -23.2889,11.11394 -50.0126,-16.75602 l -15.9662,-16.65108 -18.365,6.8712 c -15.4827,5.79283 -59.26571,13.13156 -78.87423,13.22058 -3.72391,0.0164 -11.63925,12.36385 -24.50156,38.21935 -17.25751,34.69055 -24.72142,44.74698 -29.59455,39.87383 -0.94831,-0.94831 6.71164,-17.79095 17.02212,-37.42811 21.48534,-40.92057 21.11059,-41.77391 -14.3147,-32.59431 l -19.75688,5.11954 -45.62076,-45.24962 c -63.26228,-62.74711 -89.88951,-92.96578 -81.91741,-92.96578 5.73259,0 18.46357,8.63846 20.037,13.59589 1.05008,3.30851 26.32718,30.38664 56.17135,60.1736 l 54.26212,54.15816 15.46692,-4.69371 c 8.5068,-2.58153 21.66851,-4.70973 29.24822,-4.72934 13.26438,-0.0342 14.25189,-0.78147 26.32644,-19.9204 6.89983,-10.93663 18.99055,-28.33676 26.86824,-38.66696 l 14.32307,-18.78218 -36.66895,-4.07839 c -70.95812,-7.89208 -105.27084,-20.1238 -165.46104,-58.98318 -12.15873,-7.84979 -23.42466,-14.27235 -25.03541,-14.27235 -1.61074,0 -17.63213,12.95754 -35.60308,28.79454 -17.97094,15.83701 -46.38544,39.82954 -63.14332,53.31674 -24.15207,19.43823 -34.87014,31.03648 -51.69815,55.9437 -11.6761,17.28183 -27.27222,37.34494 -34.65806,44.58472 -14.44074,14.15513 -29.37424,40.0311 -29.37424,50.89809 0,4.41646 -2.15925,6.691 -6.35189,6.691 -5.42749,0 -5.93646,-1.31701 -3.4973,-9.04971 z m 468.91655,-88.24874 c 24.1873,-6.84587 27.9764,-9.94985 19.4666,-15.94682 -3.7729,-2.65884 -13.1684,-10.10488 -20.87891,-16.54679 -7.71046,-6.44192 -15.88535,-11.71257 -18.1664,-11.71257 -3.19761,0 -34.71958,45.88916 -34.71958,50.54417 0,2.4708 39.44159,-2.13303 54.29829,-6.33799 z m 57.5891,-80.85483 c 17.9322,-3.81388 46.0713,-16.07193 46.0713,-20.06983 0,-6.60132 -7.5231,-32.1252 -9.4404,-32.02862 -1.1426,0.0576 -4.952,2.27888 -8.4653,4.93621 -8.757,6.62347 -23.5892,6.06301 -54.9961,-2.07805 -14.6609,-3.80025 -30.6106,-6.11866 -35.44395,-5.15201 -4.8333,0.96667 -10.93939,0.37383 -13.56908,-1.31741 -4.16217,-2.67688 -4.1421,-3.49454 0.155,-6.31542 7.31885,-4.80451 18.93503,-4.02354 27.94293,1.87869 4.3816,2.8709 9.3431,4.36904 11.0257,3.32917 1.6825,-1.03986 14.3726,1.00281 28.2002,4.53931 26.9286,6.88719 38.0541,5.50341 44.2316,-5.5016 3.1559,-5.62205 3.4493,-5.58763 5.46,0.64026 1.1687,3.61988 4.23,10.51224 6.8029,15.31636 2.573,4.80411 4.6781,11.09778 4.6781,13.98592 0,6.57151 -0.4143,6.60547 18.5418,-1.52006 32.1128,-13.76514 65.9365,-47.46361 80.3537,-80.05614 10.1703,-22.99158 23.3793,-103.44509 23.5649,-143.529 0.1747,-37.75789 -7.8985,-77.8349 -22.1884,-110.14682 -7.6745,-17.35343 -33.0301,-56.72855 -42.8608,-66.55929 -23.3827,-23.38272 -107.7959,-70.88116 -147.9084,-83.22658 -45.51829,-14.009164 -116.23052,-11.891264 -153.8416,4.60771 -9.50414,4.16921 -23.18707,8.66444 -30.40653,9.9894 -13.34092,2.44842 -32.41638,14.69709 -63.20351,40.58401 -15.6266,13.1394 -18.3708,17.67527 -31.94195,52.79656 -31.40801,81.28194 -35.98477,103.54047 -33.97392,165.22835 2.21483,67.94544 8.61347,101.86532 25.43639,134.84097 7.1286,13.97322 22.2136,29.58918 28.58308,29.58918 2.19099,0 5.16784,1.95283 6.61524,4.33958 10.36774,17.09656 99.38439,61.47652 123.30871,61.47652 4.39636,0 9.40022,1.37135 11.11967,3.04749 2.79893,2.72837 43.78515,8.2357 83.751,11.2536 19.13902,1.44522 53.57502,-0.87523 72.39772,-4.87846 z M 898.83418,607.78126 c -1.13717,-2.96347 -0.023,-4.93621 2.79159,-4.93621 2.57716,0 12.89673,-8.01647 22.93234,-17.81438 10.03564,-9.79788 18.2466,-16.30285 18.2466,-14.45549 0,3.63499 -36.4772,42.08381 -39.96029,42.12017 -1.16382,0.0132 -2.9684,-2.19918 -4.01024,-4.91409 z m 59.77567,-13.55325 c 2.03948,-3.83438 2.96107,-7.71869 2.04797,-8.63175 -0.91307,-0.9131 1.36032,-2.45004 5.05201,-3.41543 9.00394,-2.35457 8.37135,0.88888 -2.10483,10.7918 -7.64843,7.2299 -8.25383,7.38207 -4.99515,1.25538 z m 137.02615,-58.3674 c -1.7048,-3.88227 -6.4316,-7.5319 -10.504,-8.11026 -5.7977,-0.82343 -7.4606,0.60468 -7.6641,6.58161 -0.1428,4.19825 -1.0067,5.78211 -1.9196,3.51968 -2.0158,-4.99567 -10.9838,-5.50881 -10.9838,-0.62848 0,1.91677 -1.4809,2.56979 -3.2908,1.45118 -7.2281,-4.46723 -3.2749,-10.60222 5.7589,-8.93736 l 9.0497,1.66781 -6.5465,-7.88306 c -3.6006,-4.33567 -6.8968,-8.46428 -7.3248,-9.17467 -0.428,-0.71042 -2.9035,0.47217 -5.501,2.62791 -2.6831,2.22672 -5.5253,2.6209 -6.5811,0.91267 -2.3875,-3.86311 -18.2233,-2.169 -22.8352,2.44293 -4.9924,4.99235 -8.8005,4.38608 -8.8005,-1.40106 0,-5.66223 -5.1679,-6.59514 -8.3161,-1.50127 -1.1676,1.88926 -0.1444,5.8293 2.2739,8.75572 3.9599,4.79197 3.7019,4.88803 -2.5961,0.96654 -8.9379,-5.56518 -9.5287,-19.73881 -0.8227,-19.73881 3.3936,0 6.1702,-1.39346 6.1702,-3.09658 0,-6.47357 -6.1266,-6.43557 -14.4218,0.0895 -9.62524,7.57119 -10.05127,6.39466 -3.6776,-10.15612 2.64284,-6.86281 4.5367,-9.04613 4.6858,-5.40215 0.2037,4.97613 1.9106,5.69898 9.1602,3.87943 4.9004,-1.22994 12.675,-6.04501 17.2768,-10.70015 4.6018,-4.65517 14.2903,-11.1812 21.5301,-14.50228 14.047,-6.4438 39.6647,-8.49992 36.2075,-2.90608 -1.1138,1.80224 1.7605,5.00166 6.3874,7.10982 6.2063,2.82782 8.4126,6.3345 8.4126,13.37143 0,5.24613 -1.3419,8.70911 -2.9819,7.69551 -1.64,-1.0136 -2.2451,-4.66037 -1.3446,-8.10397 1.6741,-6.40163 -8.8632,-12.5923 -14.9892,-8.80623 -1.6063,0.99274 -7.4786,-0.46887 -13.0496,-3.24802 -9.206,-4.59258 -10.8917,-4.55326 -18.4991,0.43129 -8.573,5.61724 -10.5729,9.9125 -5.5208,11.85747 1.5671,0.6033 1.6712,4.05864 0.2314,7.67853 -2.482,6.23943 -2.6301,6.19665 -2.8494,-0.8227 -0.1579,-5.05596 -2.2571,-7.40431 -6.6187,-7.40431 -17.1086,0 -7.3196,16.01473 10.5416,17.24596 10.7833,0.74332 11.6577,1.38431 6.7753,4.96697 -5.0124,3.6781 -5.0416,4.11351 -0.2758,4.11351 2.9316,0 7.6459,-2.31577 10.4763,-5.14616 4.6677,-4.66768 5.4918,-4.38763 8.8632,3.01191 2.0444,4.48691 6.1281,8.85598 9.0748,9.70899 2.9468,0.85305 7.8751,2.58937 10.9519,3.85854 4.2455,1.7513 6.7009,-0.34037 10.1853,-8.67634 2.5253,-6.04116 6.875,-12.87775 9.6662,-15.1924 4.0924,-3.39374 4.4727,-6.88805 1.9646,-18.05079 -3.7485,-16.68343 -10.338,-24.61845 -21.9959,-26.48743 -4.7878,-0.76758 -3.1519,-0.99076 3.6354,-0.49596 6.7873,0.49481 12.3405,-0.37209 12.3405,-1.9265 0,-1.55438 4.9391,0.43761 10.9757,4.42666 9.1933,6.07499 10.1823,7.83837 6.0904,10.85867 -3.5738,2.63781 -4.7265,9.37978 -4.2936,25.11312 0.4473,16.25974 -0.5854,21.95892 -4.2324,23.3584 -2.6532,1.01814 -5.4214,0.0833 -6.1516,-2.07748 -0.7301,-2.16075 -3.7765,0.78939 -6.7698,6.55584 -4.7829,9.21432 -4.8574,11.06928 -0.615,15.31169 3.7863,3.78627 3.9172,5.17647 0.6071,6.44665 -2.3211,0.89066 -5.6149,-1.55701 -7.3197,-5.4393 z m -70.5612,-38.32133 c 0,-1.80995 -1.4808,-3.29081 -3.2908,-3.29081 -1.8099,0 -3.2908,1.48086 -3.2908,3.29081 0,1.80994 1.4809,3.2908 3.2908,3.2908 1.81,0 3.2908,-1.48086 3.2908,-3.2908 z m 18.0995,32.90805 c -1.1186,-1.80994 0.3622,-3.29081 3.2908,-3.29081 2.9285,0 4.4094,1.48087 3.2908,3.29081 -1.1186,1.80994 -2.5995,3.2908 -3.2908,3.2908 -0.6914,0 -2.1722,-1.48086 -3.2908,-3.2908 z m -14.8087,-3.29081 c 0,-1.80994 1.5683,-3.2908 3.4851,-3.2908 1.9167,0 2.5698,1.48086 1.4512,3.2908 -1.1187,1.80995 -2.6869,3.29081 -3.4851,3.29081 -0.7981,0 -1.4512,-1.48086 -1.4512,-3.29081 z m -39.48962,-9.76915 c 0,-1.75311 2.2213,-2.33512 4.93621,-1.29332 2.71492,1.04184 4.93621,2.4762 4.93621,3.18754 0,0.71131 -2.22129,1.29332 -4.93621,1.29332 -2.71491,0 -4.93621,-1.43439 -4.93621,-3.18754 z m 91.11642,-4.99356 c -5.398,-3.94713 -5.1891,-4.2662 2.5021,-3.82168 8.2015,0.47397 10.8987,3.48628 5.892,6.58056 -1.3774,0.85129 -5.1547,-0.39023 -8.3941,-2.75888 z M 863.82538,500.93335 c 0,-1.75311 2.22129,-2.33513 4.9362,-1.29332 2.71492,1.04183 4.93621,2.4762 4.93621,3.18754 0,0.7113 -2.22129,1.29332 -4.93621,1.29332 -2.71491,0 -4.9362,-1.4344 -4.9362,-3.18754 z m 213.90232,-6.60916 c 0,-1.42939 2.9618,-3.3734 6.5816,-4.32004 3.6199,-0.94663 6.5817,-0.5516 6.5817,0.87779 0,1.4294 -2.9618,3.37341 -6.5817,4.32004 -3.6198,0.94663 -6.5816,0.55161 -6.5816,-0.87779 z m -69.1069,-25.98808 c 0,-3.84761 -1.4344,-6.99569 -3.1875,-6.99569 -1.7531,0 -2.3279,-2.24015 -1.2773,-4.9781 1.0507,-2.73799 0.1919,-7.04874 -1.9084,-9.57947 -2.1003,-2.53073 -2.63625,-5.27829 -1.1909,-6.10573 7.5279,-4.30954 37.777,-9.20843 44.2242,-7.16217 l 7.4249,2.35657 -8.0566,6.36363 c -4.4311,3.5 -14.3502,12.3786 -22.0425,19.73016 -12.2639,11.72083 -13.9859,12.50522 -13.9859,6.3708 z m 4.9362,-10.2865 c 1.1186,-1.80994 0.4656,-3.2908 -1.4512,-3.2908 -1.9167,0 -3.485,1.48086 -3.485,3.2908 0,1.80994 0.653,3.29081 1.4512,3.29081 0.7981,0 2.3664,-1.48087 3.485,-3.29081 z m 11.5178,8.5791 c 0,-0.71134 2.2982,-2.17522 5.1072,-3.25313 2.9285,-1.12378 4.2495,-0.5721 3.0966,1.29332 -1.9326,3.12696 -8.2038,4.62506 -8.2038,1.95981 z m 25.5645,-22.29666 c 1.9123,-1.91228 5.4194,-2.8294 7.7935,-2.03803 2.4646,0.82155 0.9729,2.31324 -3.4769,3.4769 -5.4738,1.43141 -6.7586,1.00314 -4.3166,-1.43887 z m 19.0464,-10.14252 c 0.1016,-7.69131 -1.3792,-16.67968 -3.2908,-19.9742 -4.7247,-8.14228 -28.2457,-18.5428 -39.9078,-17.64642 -10.9601,0.84241 -18.9235,12.8144 -16.2112,24.37147 1.3042,5.55709 0.5202,6.85735 -3.2598,5.40683 -6.0454,-2.31985 -6.0517,-1.12036 0.083,-15.80166 2.7827,-6.65993 5.925,-18.31748 6.9829,-25.90563 1.0579,-7.58816 3.224,-17.22555 4.8135,-21.41643 1.7566,-4.6315 1.5992,-10.03157 -0.4013,-13.76958 -5.2772,-9.86055 -3.8124,-11.48116 3.136,-3.46955 3.5351,4.07593 8.3159,6.78127 10.6242,6.01186 2.3082,-0.76941 7.1384,1.34166 10.7338,4.69127 3.5954,3.34961 8.3456,5.39619 10.5561,4.54796 5.2114,-1.99985 20.893,10.33059 20.893,16.42828 0,2.58354 -1.4808,4.69736 -3.2908,4.69736 -1.8099,0 -3.2908,-1.86508 -3.2908,-4.14462 0,-5.53839 -12.3027,-13.24546 -13.83,-8.6638 -0.6315,1.89467 -4.9852,0.38053 -9.8034,-3.40947 -4.767,-3.74977 -9.9557,-6.81775 -11.5305,-6.81775 -5.787,0 -12.8745,11.97249 -12.716,21.48029 0.1517,9.08343 1.2213,9.91929 14.9719,11.6987 22.8313,2.95448 28.7463,6.0556 34.4413,18.05697 8.4794,17.86914 36.2308,22.5412 51.9423,8.74466 3.1674,-2.78136 5.8758,-7.41899 6.0187,-10.30588 0.1823,-3.681 0.7746,-3.96325 1.9831,-0.94496 0.9478,2.36718 -0.451,6.80977 -3.1086,9.87242 -2.6576,3.06269 -5.8155,9.70498 -7.0178,14.76068 -2.6134,10.9903 -14.4548,16.65628 -21.0425,10.06861 -6.2011,-6.20106 -23.7269,-5.84351 -23.7269,0.48405 0,2.71491 -1.1106,4.93541 -2.4681,4.93446 -1.3574,-9.5e-4 -2.3849,-6.29462 -2.2831,-13.98592 z m -258.51321,0.63022 c 0,-1.91676 1.48086,-2.56979 3.2908,-1.45118 1.80995,1.11861 3.29081,2.68688 3.29081,3.48503 0,0.79815 -1.48086,1.45118 -3.29081,1.45118 -1.80994,0 -3.2908,-1.56827 -3.2908,-3.48503 z m 289.85071,-47.79669 c 0.1579,-3.8336 0.9377,-4.61338 1.9881,-1.98819 0.9507,2.37555 0.8338,5.21385 -0.2596,6.30738 -1.0935,1.09351 -1.8713,-0.85014 -1.7284,-4.31919 z m 18.4969,-8.61714 c -2.3069,-17.19964 -1.1265,-18.78546 5.9471,-7.98971 4.8408,7.38795 4.924,9.17173 0.709,15.18949 -4.5478,6.49298 -4.8656,6.14929 -6.6561,-7.19978 z m -10.3373,-20.04062 c 0.9693,-2.52604 -1.2689,-12.28338 -4.9739,-21.68298 -8.7267,-22.13993 -8.5714,-28.10535 0.3531,-13.55573 7.6959,12.54676 11.2521,34.64388 6.089,37.83489 -1.7769,1.09814 -2.4375,-0.0702 -1.4682,-2.59618 z M 943.62741,344.08229 c -2.26243,-0.96763 -4.11351,-3.29812 -4.11351,-5.17885 0,-2.06451 1.95599,-1.79618 4.93621,0.67718 3.52119,2.92232 6.14314,3.09501 9.14656,0.6024 2.31571,-1.92186 8.81781,-3.36328 14.44914,-3.20317 5.63132,0.1601 15.38813,-2.89137 21.6818,-6.78108 16.57199,-10.24203 19.09839,-8.67926 3.91017,2.41873 -12.63903,9.23534 -40.36288,15.59098 -50.01037,11.46479 z m -37.02156,-10.37811 c 0,-1.4221 2.96172,-2.58564 6.58161,-2.58564 3.61988,0 6.58161,1.16354 6.58161,2.58564 0,1.4221 -2.96173,2.58563 -6.58161,2.58563 -3.61989,0 -6.58161,-1.16353 -6.58161,-2.58563 z m 230.61615,-5.91561 c 0.158,-3.83361 0.9377,-4.61338 1.9882,-1.9882 0.9506,2.37555 0.8337,5.21387 -0.2596,6.30738 -1.0936,1.0935 -1.8713,-0.85013 -1.7284,-4.31918 z M 928.7169,309.31042 c -12.45165,-6.64449 -11.28134,-6.72135 19.02401,-1.24943 l 23.03564,4.15931 -15.73321,1.37146 c -10.76662,0.93852 -19.07726,-0.41299 -26.32644,-4.28134 z m 206.952,2.02921 c -2.9916,-7.79602 -2.4976,-10.27839 3.1738,-15.94983 6.7863,-6.78625 9.928,-6.52606 17.9398,1.48577 5.2874,5.2874 5.9406,7.99562 3.175,13.16322 -4.2915,8.01872 -21.3599,8.93286 -24.2886,1.30084 z m -30.3775,-5.44198 c -3.4756,-10.24731 -1.9366,-15.67226 6.4276,-22.65738 8.6014,-7.18329 18.4951,-8.80806 11.4924,-1.88731 -2.3918,2.3637 -6.9401,5.27894 -10.1075,6.47832 -6.5432,2.47766 -7.9341,17.56777 -1.8075,19.60996 2.8786,0.95952 2.9429,1.94044 0.237,3.61282 -2.1786,1.3464 -4.7597,-0.78583 -6.242,-5.15641 z m -110.62643,-5.78892 c 14.28383,-8.70894 24.21463,-25.30421 21.53393,-35.98495 -1.1405,-4.54421 -5.5334,-11.99344 -9.7621,-16.55384 -4.2286,-4.5604 -7.6884,-9.51622 -7.6884,-11.01293 0,-1.49672 -3.99724,-8.17573 -8.88274,-14.84225 l -8.88274,-12.12096 11.35084,10.3997 c 6.24296,5.71983 20.07454,15.60939 30.73684,21.9768 l 19.386,11.57709 -11.9817,2.24779 c -19.1302,3.58885 -13.3922,12.09515 6.3263,9.37835 9.228,-1.27142 9.1444,-1.11726 -1.8539,3.41809 -10.5878,4.36605 -10.9348,4.92662 -4.2974,6.94236 5.6934,1.72905 6.3894,3.08441 3.2908,6.40879 -2.1613,2.3188 -7.2276,3.85596 -11.2585,3.4159 -4.8047,-0.52455 -8.0249,1.39334 -9.3501,5.56868 -1.1118,3.50283 -2.8249,5.56526 -3.807,4.58318 -0.9821,-0.98208 -5.4892,1.12761 -10.01577,4.68821 -4.52657,3.5606 -9.8815,6.46829 -11.89985,6.46152 -2.01835,-0.007 1.15662,-2.95495 7.05549,-6.55153 z m 41.92773,-0.0178 c -3.276,-3.61988 -4.6022,-6.58161 -2.9471,-6.58161 1.6551,0 4.8589,2.96173 7.1196,6.58161 2.2606,3.61989 3.5868,6.58161 2.947,6.58161 -0.6398,0 -3.8436,-2.96172 -7.1195,-6.58161 z m -83.91558,-6.47833 c 0,-1.75314 2.2213,-2.33513 4.93621,-1.29332 2.71492,1.04181 4.93621,2.4762 4.93621,3.18752 0,0.71133 -2.22129,1.29333 -4.93621,1.29333 -2.71491,0 -4.93621,-1.43439 -4.93621,-3.18753 z m 84.73828,-5.57352 c 2.2624,-0.91291 5.9645,-0.91291 8.227,0 2.2624,0.91291 0.4113,1.65983 -4.1135,1.65983 -4.5249,0 -6.376,-0.74692 -4.1135,-1.65983 z m 53.6132,-4.65932 c 5.0809,-9.49386 2.387,-14.35683 -12.6283,-22.79589 -7.9578,-4.47254 -15.0884,-11.90814 -18.4744,-19.2646 l -5.5143,-11.98065 9.9775,11.51782 c 5.4877,6.3348 11.6549,13.4998 13.705,15.92224 4.5206,5.34159 21.7152,2.7363 39.8877,-6.04371 6.8194,-3.29475 12.3988,-4.73137 12.3988,-3.1925 0,1.53888 -1.4808,3.71318 -3.2908,4.83178 -6.4621,3.99379 -3.1015,6.89457 8.9256,7.70455 20.4006,1.37391 16.5622,3.81327 -6.0004,3.81327 -22.7815,0 -32.5424,5.93363 -32.5424,19.78245 0,3.68967 -2.2036,6.544 -5.052,6.544 -4.0956,0 -4.3591,-1.2947 -1.392,-6.83876 z m -152.5254,-8.91392 c -6.63167,-7.32792 -3.93798,-19.47647 4.94354,-22.29536 6.99125,-2.21893 19.1028,7.83791 19.1028,15.86204 0,11.94082 -15.34644,16.04659 -24.04634,6.43332 z m 210.0001,2.62715 c -1.1529,-1.86543 0.1682,-2.41712 3.0966,-1.29332 5.7011,2.18769 6.7442,4.54643 2.0106,4.54643 -1.7031,0 -4.0014,-1.4639 -5.1072,-3.25311 z M 915.366,257.92125 c 2.29666,-8.78669 15.37521,-18.4791 21.57436,-15.98858 2.742,1.10161 2.28639,1.78594 -1.30145,1.95479 -3.03623,0.14289 -9.28764,5.0726 -13.89203,10.95492 -7.07119,9.03375 -8.06238,9.51202 -6.38088,3.07887 z m 67.09035,-18.53777 c -8.93882,-9.51493 -25.81022,-18.0171 -37.70622,-19.00164 -9.46077,-0.783 -11.88066,-5.87055 -2.76812,-5.81968 8.84232,0.0494 37.90514,14.63259 44.95417,22.55724 8.84371,9.94232 4.70062,12.03622 -4.47983,2.26408 z m 88.68975,-9.85063 c 0,-2.6081 1.3428,-5.57187 2.9839,-6.58615 1.6412,-1.01429 2.2089,1.11961 1.2616,4.74199 -2.0094,7.68399 -4.2455,8.6553 -4.2455,1.84416 z M 1031.6565,206.303 c -2.3614,-2.84521 -2.6812,-4.93621 -0.7551,-4.93621 1.838,0 4.1941,2.22129 5.2359,4.93621 1.0418,2.71491 1.3816,4.93621 0.755,4.93621 -0.6265,0 -2.9827,-2.2213 -5.2358,-4.93621 z m 17.9409,-4.11351 c -1.6079,-7.54238 -10.3169,-32.25225 -22.907,-64.9934 -2.5309,-6.58161 -2.5309,-6.58161 4.0222,0 8.6136,8.65107 19.7935,38.78149 21.6738,58.41179 1.6528,17.25565 0.2116,20.65675 -2.789,6.58161 z m 41.1513,3.98494 c 6.1261,-8.24617 17.3998,-17.80306 21.1127,-17.89769 4.2655,-0.10869 -4.1625,9.11519 -15.742,17.2286 -9.2703,6.49545 -9.7428,6.55432 -5.3707,0.66909 z m -75.7591,-23.72977 c -2.7315,-3.1674 -8.6138,-8.41493 -13.0719,-11.66119 -7.79453,-5.67584 -7.68402,-5.67584 2.8809,0 8.7939,4.72433 20.591,17.4201 16.1872,17.4201 -0.5664,0 -3.2647,-2.59151 -5.9962,-5.75891 z m 64.6241,-1.21187 c 1.3731,-2.22179 14.5681,-0.0647 14.5681,2.38152 0,0.6736 -3.5954,0.92717 -7.9898,0.56348 -4.3944,-0.36369 -7.3546,-1.68894 -6.5783,-2.945 z m -9.9014,-3.86626 c 1.2358,-3.24546 3.0759,-5.07186 4.0891,-4.05866 1.0132,1.01319 0,3.66857 -2.2469,5.90083 -3.2501,3.22587 -3.6281,2.84788 -1.8422,-1.84217 z m -5.1478,-23.5222 c 0,-2.6081 1.3428,-5.57187 2.9839,-6.58616 1.6412,-1.01428 2.2089,1.11962 1.2616,4.742 -2.0094,7.68399 -4.2455,8.6553 -4.2455,1.84416 z m -139.58247,-10.5321 c -1.80461,-4.70269 -1.31787,-4.82318 3.76143,-0.93119 3.20883,2.45877 6.45126,4.88952 7.20541,5.40167 0.75412,0.51216 -0.9385,0.9312 -3.76142,0.9312 -2.82295,0 -6.06538,-2.43076 -7.20542,-5.40168 z m 133.05127,1.48238 c -0.028,-3.06058 1.4305,-6.47992 3.2404,-7.59852 4.1648,-2.57401 4.1648,1.78239 0,8.22701 -2.7491,4.25398 -3.197,4.16712 -3.2404,-0.62849 z M 926.35068,132.25988 c 0,-1.80994 1.56827,-3.29081 3.48503,-3.29081 1.91676,0 2.56979,1.48087 1.45118,3.29081 -1.11861,1.80994 -2.68688,3.2908 -3.48503,3.2908 -0.79815,0 -1.45118,-1.48086 -1.45118,-3.2908 z"
         id="path3026"
         inkscape:connector-curvature="0" />
      <path
         style="fill:#000000;fill-opacity:1"
         d="m 531.45403,795.64998 c 0,-13.8075 15.29424,-42.6597 30.2706,-57.10469 8.88753,-8.57222 24.0855,-27.43275 33.77325,-41.91229 23.12475,-34.5628 28.04722,-39.89713 60.40024,-65.45382 15.05093,-11.88922 42.11019,-34.60022 60.13169,-50.46888 25.0915,-22.0941 31.74419,-29.62531 28.40245,-32.15324 -8.11715,-6.14028 -24.55358,-32.82783 -29.87756,-48.51161 -18.32465,-53.98224 -24.0134,-148.84169 -11.71966,-195.42428 3.76241,-14.25625 7.68721,-29.62261 8.72178,-34.14747 2.41023,-10.54151 29.02661,-79.73082 35.44998,-92.15226 2.68871,-5.19938 15.63441,-17.77311 28.76822,-27.94163 13.1338,-10.16851 26.68143,-20.79218 30.10583,-23.60816 9.99515,-8.21928 38.62322,-20.46913 43.48058,-18.60519 2.45116,0.9406 10.78068,-1.31058 18.51002,-5.00262 35.41345,-16.915804 110.92598,-16.908488 161.52435,0.0158 40.8764,13.67231 109.8556,52.15473 138.963,77.52526 21.2556,18.52673 48.8843,66.09017 62.6588,107.86838 11.8785,36.02777 14.6035,96.15257 6.4498,142.30473 -15.7874,89.3602 -19.491,98.28039 -55.6801,134.10742 -25.096,24.84499 -29.3549,27.60094 -69.8459,45.19718 -49.086,21.33142 -63.7489,25.37688 -92.3904,25.49018 -14.2505,0.0563 -21.92328,1.67127 -25.65065,5.39863 -2.925,2.925 -4.88188,6.46048 -4.34857,7.8566 1.26637,3.31536 49.67762,42.75964 52.48662,42.76491 1.1853,0.002 1.3605,-5.91944 0.3894,-13.15921 -1.1592,-8.64274 -0.4866,-13.16322 1.9586,-13.16322 2.0482,0 3.7241,2.15162 3.7241,4.78137 0,7.96105 7.3729,21.54507 11.694,21.54507 5.6549,0 8.4412,-8.81656 5.9381,-18.78997 -1.5823,-6.30407 -0.9669,-8.01913 2.471,-6.88706 2.6932,0.88687 4.9945,7.16016 5.5898,15.23767 0.9823,13.32796 4.48,16.42988 12.6423,11.21168 2.08,-1.32975 4.3012,-6.11988 4.9362,-10.64474 1.5237,-10.8586 7.4659,-10.55887 8.7405,0.44091 0.7134,6.15637 -1.4639,10.60952 -7.5146,15.36895 -10.2536,8.0655 -5.076,13.42648 6.819,7.06052 9.3283,-4.99238 13.9058,-2.11319 7.9842,5.02193 -5.2485,6.32407 -25.8326,6.53541 -32.715,0.33593 -2.8574,-2.57391 -9.6379,-5.78126 -15.0677,-7.12746 -9.3664,-2.32219 -9.6194,-2.12451 -4.9362,3.85712 9.0446,11.55224 24.62,24.2998 29.6172,24.23997 11.1766,-0.13393 64.7867,-32.91236 85.2065,-52.09733 l 11.1633,-10.48826 -7.0498,-7.50415 c -3.8774,-4.12744 -7.0498,-9.25995 -7.0498,-11.40572 0,-5.58881 6.4349,-4.82185 8.6823,1.0348 2.9784,7.76159 11.9165,6.22936 9.4265,-1.61595 -1.1438,-3.6037 -1.1118,-8.11819 0.071,-10.03222 3.6739,-5.94428 11.4374,3.35277 11.4374,13.69649 0,5.20823 1.3225,9.46949 2.9387,9.46949 3.5648,0 6.9337,-8.12542 6.9337,-16.72318 0,-3.47183 1.6365,-6.31245 3.6365,-6.31245 2.2579,0 3.1606,4.99014 2.3811,13.16322 -0.8856,9.28695 0.013,13.16322 3.0485,13.16322 2.367,0 5.1561,-2.22129 6.1979,-4.93621 2.3547,-6.1362 7.7717,-6.4917 7.7717,-0.51004 0,12.24736 -26.2924,20.61805 -35.5821,11.3283 -3.1266,-3.12663 -6.0746,-1.46184 -13.6191,7.69094 -10.4412,12.66694 -54.0151,43.05107 -81.4036,56.76281 l -17.072,8.54691 -22.7313,-22.24064 -22.7314,-22.24065 -19.1479,7.41685 c -10.5314,4.07925 -33.19756,8.85421 -50.36918,10.61101 -17.17165,1.75676 -32.34121,4.37683 -33.71015,5.82238 -1.36895,1.44552 -11.02015,19.28794 -21.44714,39.6498 -10.42701,20.36186 -20.88328,37.02156 -23.23618,37.02156 -5.22777,0 -2.99575,-6.75836 8.12375,-24.59798 7.45328,-11.9577 23.59057,-45.84513 23.59057,-49.53896 0,-3.20156 -19.13225,-1.37875 -35.00545,3.33506 l -16.45515,4.88669 -44.75042,-45.19905 c -49.33854,-49.83316 -84.78328,-86.84501 -84.78328,-88.53178 0,-0.6012 2.72991,-1.09311 6.06648,-1.09311 3.33656,0 12.5502,7.77453 20.47476,17.27673 22.2552,26.68586 48.11971,53.41441 78.97004,81.60819 l 28.17736,25.75098 12.95771,-3.4173 c 7.12674,-1.87948 20.24553,-4.3777 29.15285,-5.55153 14.40712,-1.89866 17.38033,-3.76919 26.93064,-16.94291 5.90456,-8.14474 10.83386,-16.03175 10.95404,-17.52669 0.12011,-1.49492 7.0386,-11.5813 15.37431,-22.41421 8.33571,-10.83287 14.3433,-20.50866 13.35021,-21.50172 -0.99307,-0.9931 -11.14514,-2.48183 -22.56015,-3.30832 -28.0195,-2.02868 -78.74279,-10.50402 -83.06971,-13.88009 -1.92551,-1.50238 -7.83689,-3.77057 -13.13643,-5.04046 -15.96337,-3.8252 -50.5415,-21.14204 -79.43402,-39.78087 l -27.24853,-17.57826 -12.37169,10.45811 c -6.80443,5.75197 -16.17357,13.95447 -20.8203,18.22777 -11.64746,10.71144 -47.05697,40.56708 -83.01866,69.99744 -8.03176,6.57306 -23.3645,25.08384 -34.07274,41.13507 -10.70824,16.05123 -25.56533,34.64362 -33.01576,41.31642 -12.09652,10.83393 -34.39954,48.56874 -34.39954,58.20109 0,2.04033 -1.48086,3.70969 -3.29081,3.70969 -1.80994,0 -3.2908,-2.08953 -3.2908,-4.64339 z m 473.62967,-93.21183 c 9.8191,-3.19284 18.2567,-7.28601 18.7501,-9.09595 1.1321,-4.153 -33.2107,-32.58016 -40.90934,-33.86256 -5.39096,-0.89802 -25.29474,23.54173 -36.70212,45.0663 l -4.19361,7.91291 22.60093,-2.10777 c 12.43049,-1.15928 30.6348,-4.7201 40.45404,-7.91293 z m 53.7627,-79.80486 c 24.4372,-6.15812 35.8087,-10.56145 44.0465,-17.05602 2.798,-2.20586 2.2373,-8.05448 -2.1665,-22.59898 -3.2677,-10.79259 -5.3736,-19.62291 -4.6798,-19.62291 1.8306,0 14.5892,28.62103 14.5892,32.72752 0,5.23508 3.5921,4.3545 25.4716,-6.2441 26.2109,-12.69672 59.5951,-45.81924 71.4602,-70.90008 10.9117,-23.06538 28.1188,-116.37465 28.1188,-152.48021 0,-30.93588 -12.9318,-84.42604 -27.6831,-114.50593 -26.9572,-54.96975 -57.6982,-82.49406 -135.2118,-121.06337 -61.3288,-30.51609 -111.89293,-39.664172 -164.62245,-29.78355 -15.91059,2.98138 -31.28615,6.7308 -34.16791,8.33203 -11.41235,6.34122 -31.13893,12.94977 -38.65518,12.94977 -9.29404,0 -53.44372,30.16147 -70.69676,48.29748 -14.92485,15.68867 -38.7417,74.75091 -52.84647,131.05142 -9.10933,36.36072 -9.74837,42.6186 -8.06518,78.97932 2.13113,46.03735 11.95247,103.51992 21.17352,123.92482 8.47661,18.75756 25.93469,42.26086 31.39107,42.26086 2.37758,0 9.08145,4.24846 14.8975,9.44102 5.81606,5.1926 23.38294,16.66928 39.03753,25.50374 41.46698,23.40145 75.31483,34.60341 88.85626,29.4071 4.86569,-1.86717 4.98623,-2.621 0.83856,-5.244 -4.05154,-2.56225 -3.88986,-3.07164 0.98846,-3.11379 3.20785,-0.0263 12.46324,-6.16243 20.56754,-13.63272 8.1043,-7.47029 14.73511,-12.10036 14.73511,-10.28907 0,1.81126 -8.14475,10.39813 -18.09943,19.0819 -9.95469,8.68375 -18.09943,16.87703 -18.09943,18.20731 0,2.58999 19.52441,5.75377 59.23449,9.59849 44.99587,4.35646 73.10587,3.4453 99.58767,-3.22805 z m -94.65146,-36.24227 c 1.11861,-1.80994 2.68688,-3.2908 3.48503,-3.2908 0.79815,0 1.45118,1.48086 1.45118,3.2908 0,1.80994 -1.56827,3.29081 -3.48503,3.29081 -1.91676,0 -2.56979,-1.48087 -1.45118,-3.29081 z m 80.62476,-10.43554 c -6.3348,-1.74913 -15.9575,-4.04081 -21.3838,-5.09265 -8.3667,-1.62181 -8.8921,-2.2541 -3.4571,-4.16057 3.5249,-1.23645 15.3689,0.57129 26.32,4.01725 11.985,3.7713 24.496,5.55469 31.4289,4.48011 8.0411,-1.2464 10.0278,-0.83531 6.5816,1.36186 -6.1068,3.89352 -24.1992,3.61587 -39.4896,-0.606 z m -61.94891,-14.58689 c 3.77139,-3.77136 8.18825,-4.63829 15.47606,-3.03761 17.00935,3.73589 15.13675,8.31521 -3.40022,8.31521 -15.92414,0 -16.91872,-0.43468 -12.07584,-5.2776 z m 86.77051,-37.27548 c -2.8022,-4.534 2.6243,-6.76066 11.0843,-4.54829 5.575,1.45786 6.3341,2.63851 3.0392,4.72705 -5.8111,3.6836 -11.7832,3.60801 -14.1235,-0.17869 z m -51.1481,-5.43164 c 0,-3.75517 -1.9692,-4.92084 -6.3691,-3.77024 -3.6823,0.96296 -7.1092,-0.26326 -8.1237,-2.907 -1.1315,-2.94859 0.5462,-4.57254 4.7237,-4.57254 3.5631,0 6.4783,-1.48086 6.4783,-3.2908 0,-1.80995 2.2213,-3.29081 4.9362,-3.29081 2.7149,0 4.9362,-1.39303 4.9362,-3.09566 0,-1.7026 3.9662,-1.03795 8.8138,1.47698 4.8476,2.51496 9.8622,3.92465 11.1437,3.13268 1.2815,-0.792 3.075,1.40926 3.9857,4.89168 2.0483,7.83271 15.52,5.52135 15.5969,-2.67598 0.043,-4.645 0.4719,-4.70835 3.1538,-0.46641 4.586,7.25386 -0.3905,10.23033 -18.3831,10.99491 -8.8461,0.37595 -19.4157,2.55673 -23.4881,4.84624 -6.3702,3.58142 -7.4043,3.40362 -7.4043,-1.27305 z m -29.61722,-1.2741 c 0,-1.75311 2.2213,-2.33512 4.93621,-1.29332 2.71492,1.04184 4.93621,2.4762 4.93621,3.18754 0,0.71131 -2.22129,1.29332 -4.93621,1.29332 -2.71491,0 -4.93621,-1.43439 -4.93621,-3.18754 z m 111.88742,-2.88403 c 0,-2.09048 1.4808,-3.80084 3.2908,-3.80084 1.8099,0 3.2908,-2.03997 3.2908,-4.53329 0,-2.49327 2.0483,-6.23324 4.5519,-8.31099 3.5232,-2.92398 5.0106,-2.58236 6.5816,1.5116 2.7822,7.25047 2.6027,8.04187 -1.8247,8.04187 -2.1199,0 -6.5625,2.4508 -9.8724,5.44625 -3.6007,3.25856 -6.018,3.91948 -6.018,1.6454 z M 996.42966,497.63267 c 2.42023,-6.41191 4.53704,-8.41041 6.14764,-5.80426 1.9186,3.10432 4.8312,3.10553 13.2998,0.007 9.784,-3.58138 10.2192,-3.49661 4.4553,0.86805 -3.5134,2.66045 -8.9082,4.83716 -11.9885,4.83716 -3.0803,0 -6.4529,2.22129 -7.4947,4.9362 -1.04185,2.71492 -3.29293,4.93621 -5.00247,4.93621 -1.81968,0 -1.57801,-4.05404 0.58293,-9.77902 z m 87.26264,-5.63218 c 2.3755,-0.95062 5.2139,-0.83373 6.3074,0.25964 1.0935,1.0935 -0.8501,1.87129 -4.3192,1.7284 -3.8336,-0.15796 -4.6134,-0.93768 -1.9882,-1.98817 z m 31.8147,-5.15633 c -0.8271,-2.26243 -1.9603,-7.30102 -2.5182,-11.19687 -0.5579,-3.89585 -3.0299,-9.51184 -5.4932,-12.47998 -3.1059,-3.74241 -3.4278,-6.44761 -1.0502,-8.82529 2.3777,-2.37767 4.8968,-1.33261 8.2182,3.40935 2.6343,3.76089 5.9679,5.73676 7.4082,4.39082 1.4403,-1.34594 0.9014,0.85439 -1.1975,4.88961 -2.0989,4.03522 -2.8794,11.06931 -1.7344,15.63132 2.1038,8.38215 -0.853,11.78507 -3.6329,4.18104 z m -85.4959,-6.46854 c 3.6198,-2.09016 8.5384,-5.74726 10.9301,-8.12694 5.0566,-5.03112 10.4601,-5.68079 10.4601,-1.25762 0,1.68799 -2.9617,4.00906 -6.5816,5.15798 -3.6199,1.14892 -6.5816,3.46999 -6.5816,5.15798 0,1.68795 -3.332,3.02402 -7.4043,2.96896 -7.2083,-0.0974 -7.23,-0.20074 -0.8227,-3.90036 z m 60.8799,-2.70132 c -4.5249,-1.49094 -14.6643,-4.57955 -22.5321,-6.86357 -12.424,-3.60672 -13.3825,-4.49399 -7.2898,-6.74783 7.2727,-2.69037 39.6943,9.02898 39.6943,14.34821 0,1.47076 -0.3702,2.51661 -0.8227,2.32406 -0.4525,-0.19251 -4.5249,-1.56994 -9.0497,-3.06087 z m -81.0348,-10.91064 c 0.4224,-2.878 1.7981,-6.26286 3.0571,-7.52186 4.0774,-4.0774 2.4247,-7.61926 -2.6471,-5.67305 -2.7149,1.04184 -5.1583,0.25504 -5.4298,-1.74867 -1.304,-9.62363 -0.9039,-11.88714 2.139,-12.09877 1.81,-0.12571 9.6573,-2.05363 17.4385,-4.28391 7.7813,-2.23028 17.1654,-3.09731 20.8536,-1.9267 6.5518,2.07949 6.5292,2.24558 -0.9845,7.23349 -4.2297,2.80781 -9.2248,6.73953 -11.1003,8.73715 -12.995,13.84113 -24.0203,22.00966 -23.3265,17.28232 z m 83.7085,-14.25284 c 2.3756,-0.95061 5.2139,-0.83372 6.3074,0.25965 1.0935,1.09353 -0.8501,1.87128 -4.3192,1.72839 -3.8336,-0.15795 -4.6133,-0.93768 -1.9882,-1.98817 z m -21.8283,-20.1004 c 0.2744,-7.76673 1.4764,-12.5404 2.6706,-10.60814 1.1942,1.93229 9.8569,4.4235 19.2505,5.53602 13.67,1.61901 18.363,0.86101 23.5105,-3.79742 6.3483,-5.74516 6.3653,-5.65242 1.3197,7.19241 -5.3687,13.66754 -10.1223,15.34523 -23.2449,8.20398 -7.3832,-4.01797 -17.3219,-2.14672 -21.5831,4.06369 -1.3324,1.94197 -2.1979,-2.82378 -1.9233,-10.59054 z m -9.2726,-25.36829 c -1.0419,-2.71492 -3.8697,-4.93621 -6.2842,-4.93621 -2.4144,0 -5.3051,-1.48086 -6.4237,-3.29081 -3.8503,-6.22982 4.5855,-3.27649 13.8024,4.83222 5.0783,4.46767 7.3357,8.16982 5.0164,8.22702 -2.3192,0.0573 -5.0691,-2.11731 -6.1109,-4.83222 z m -47.2614,-22.65948 c 0,-6.12791 2.1601,-15.30528 4.8003,-20.39416 3.4329,-6.61687 3.8075,-10.44875 1.315,-13.45199 -3.3228,-4.00373 8.0825,0.24536 24.4585,9.1121 3.2411,1.75484 7.3134,2.31263 9.0498,1.23952 1.7363,-1.0731 3.1569,-0.38284 3.1569,1.53392 0,1.91676 1.5866,3.48502 3.5259,3.48502 4.7716,0 12.9281,8.45968 12.9281,13.4087 0,2.20351 -3.6314,0.088 -8.0699,-4.70115 -4.4384,-4.78915 -10.1926,-8.70755 -12.787,-8.70755 -2.5945,0 -8.819,-2.12806 -13.8324,-4.72904 -8.4265,-4.37171 -9.5254,-4.18522 -14.5438,2.46811 -8.4446,11.19591 -8.0966,24.94963 0.721,28.4949 7.0719,2.84339 7.0027,2.97473 -1.6727,3.17467 -8.1315,0.18758 -9.0497,-0.92182 -9.0497,-10.93305 z m 105.2043,-8.79285 c -4.978,-9.30146 -2.3256,-11.2375 4.7238,-3.44801 3.5012,3.86879 4.3981,7.06667 2.3388,8.33936 -1.8371,1.13535 -5.0152,-1.06576 -7.0626,-4.89135 z M 953.84233,341.40295 c 5.16571,-2.79302 10.65375,-4.29853 12.19566,-3.34558 1.54191,0.95294 8.23251,-0.53578 14.86802,-3.30827 16.08329,-6.72004 18.36033,-6.27886 6.32457,1.22541 -5.42983,3.38548 -17.27673,7.13445 -26.32644,8.33104 -16.24039,2.14737 -16.33207,2.10968 -7.06181,-2.9026 z m -44.76838,-7.29258 c 2.26243,-0.91291 5.96459,-0.91291 8.22701,0 2.26243,0.91292 0.41136,1.65984 -4.1135,1.65984 -4.52486,0 -6.37594,-0.74692 -4.11351,-1.65984 z m 192.08165,-5.4391 c -5.3871,-13.55001 -4.4588,-18.62788 1.3641,-7.46195 2.7536,5.28031 4.4018,11.20376 3.6628,13.16322 -0.7391,1.95947 -3.0012,-0.6061 -5.0269,-5.70127 z m 35.9812,-16.85214 c -5.9263,-7.14077 1.2785,-18.30979 11.8111,-18.30979 6.2968,0 7.9616,1.30735 6.5035,5.10713 -1.1238,2.92857 -0.5721,4.24949 1.2933,3.09659 3.679,-2.2737 4.2227,1.89469 1.2557,9.62657 -2.4936,6.49825 -15.6181,6.79989 -20.8636,0.4795 z m -207.49532,-1.85576 c -3.87466,-2.504 -3.16697,-3.11713 3.29081,-2.85106 4.52486,0.18642 12.6696,1.4694 18.09943,2.85106 9.51007,2.4199 9.38926,2.52454 -3.29081,2.85106 -7.23977,0.18643 -15.38451,-1.09655 -18.09943,-2.85106 z m 82.13482,-25.23907 c 5.4056,-7.45484 6.9561,-12.84973 5.4348,-18.91085 -2.1462,-8.55149 -20.58998,-37.70193 -26.68971,-42.18333 -1.80995,-1.32974 -2.02306,-2.44039 -0.47355,-2.4681 1.54947,-0.0277 8.42647,4.39219 15.28216,9.82202 6.8557,5.42983 13.4991,9.87242 14.7632,9.87242 1.264,0 6.0634,2.96172 10.6653,6.58161 l 8.3672,6.58161 -10.3163,0 c -12.3566,0 -14.2522,8.5024 -2.9119,13.06067 6.5895,2.64862 6.6981,2.99913 0.9873,3.18476 -7.6118,0.24744 -3.349,5.38541 6.4171,7.73445 5.9478,1.43063 5.8685,1.61985 -0.8227,1.96482 -4.0724,0.20996 -7.4044,1.95 -7.4044,3.86676 0,1.91676 -1.5741,2.51212 -3.4981,1.32303 -1.924,-1.18909 -6.6179,0.57459 -10.4309,3.91929 -6.3657,5.58389 -6.3141,5.22816 0.6305,-4.34916 z m 79.1147,2.39764 c 0,-1.70312 1.4639,-4.00133 3.2531,-5.10712 1.8654,-1.1529 2.4171,0.16803 1.2933,3.09659 -2.1877,5.70105 -4.5464,6.74413 -4.5464,2.01053 z m 26.3264,-3.16105 c 0,-3.41731 6.2598,-8.36434 8.114,-6.4124 0.6021,0.63373 -0.9773,3.06169 -3.5097,5.39548 -2.5324,2.33379 -4.6043,2.7914 -4.6043,1.01692 z M 938.30335,273.38672 c -9.43024,-13.46357 4.93334,-27.11797 17.27064,-16.4179 8.54266,7.40902 8.72899,10.89799 0.95752,17.93106 -7.98879,7.22974 -12.35845,6.86701 -18.22816,-1.51316 z m 152.65565,-4.4764 c -3.3378,-4.02177 -2.4193,-5.49328 5.356,-8.5811 5.1615,-2.04981 11.956,-5.04845 15.0988,-6.66364 8.3093,-4.27034 12.3852,-3.61231 12.3852,1.9995 0,2.71491 -2.2213,4.93621 -4.9362,4.93621 -2.7149,0 -7.8979,2.96172 -11.5178,6.58161 -7.8531,7.8531 -11.0246,8.18745 -16.386,1.72742 z m 45.1805,-7.19766 c 2.2625,-0.91291 5.9646,-0.91291 8.227,0 2.2625,0.91291 0.4114,1.65983 -4.1135,1.65983 -4.5248,0 -6.3759,-0.74692 -4.1135,-1.65983 z m -219.66124,-7.36902 c 0,-3.41731 6.25981,-8.36433 8.11404,-6.4124 0.60202,0.63373 -0.97737,3.06169 -3.50974,5.39548 -2.53237,2.33379 -4.6043,2.7914 -4.6043,1.01692 z m 149.06604,-4.35794 c -4.9873,-6.43662 -7.9776,-16.35649 -4.2329,-14.04216 1.7892,1.1058 3.2531,4.02103 3.2531,6.4783 0,2.45727 1.8511,5.12886 4.1135,5.93687 2.2624,0.80801 3.2139,2.44806 2.1144,3.64456 -1.0996,1.1965 -3.4612,0.28861 -5.2481,-2.01757 z m -98.05855,-22.51569 c -5.42983,-3.47806 -8.39156,-6.32178 -6.58161,-6.31938 1.80994,0.002 7.73339,2.94657 13.16322,6.5426 5.42983,3.59604 8.39155,6.43975 6.58161,6.31938 -1.80994,-0.12038 -7.73339,-3.06455 -13.16322,-6.5426 z M 1095.7903,201.67 c 6.2371,-7.14206 18.1363,-15.23005 18.1363,-12.32739 0,0.75383 -5.5532,5.52213 -12.3405,10.59621 -10.1069,7.55574 -11.1559,7.86909 -5.7958,1.73118 z m -55.3369,-32.35053 c -3.3064,-8.61815 -8.1192,-19.6 -10.6951,-24.40412 -5.9446,-11.08678 -5.9779,-14.42003 -0.085,-8.52738 6.5993,6.59933 19.2243,37.17238 17.9067,43.36336 -0.6131,2.88062 -3.82,-1.81372 -7.1264,-10.43186 z"
         id="path3024"
         inkscape:connector-curvature="0" />
    </g>
  </g>
</svg>
